<svg width="195" height="183" viewBox="0 0 195 183" fill="none" xmlns="http://www.w3.org/2000/svg">
<g id="ILLUSTRATIONS ISO" filter="url(#filter0_d_836_4990)">
<path id="color_x5F_9" d="M38.7718 138.396L88.2013 109.557L88.2241 113.228L38.7946 142.227L5.6214 123.061L5.59862 119.526L38.7718 138.396ZM54.8458 52.5826L53.1598 51.6277C52.3168 51.1503 51.2915 51.1616 50.4599 51.6504L3.90123 78.8188C2.94431 79.3758 2.35193 80.4103 2.36332 81.5129L2.55698 117.809L5.59862 119.526L5.39357 81.4447L54.8458 52.5826ZM82.0383 47.8878L81.6395 48.3766L83.0408 48.9563V50.3204L83.8382 50.2636L84.7951 48.7176L82.0383 47.8878ZM81.8674 49.3883L79.065 48.3766L79.1333 50.1385L81.8674 51.2526V49.3883ZM79.4637 52.162L76.8322 51.0934L77.3448 52.628L80.1586 53.6625L79.4637 52.162ZM79.7257 54.5946L76.9119 53.5033L75.693 54.2422L78.3587 55.1175L79.7257 54.5946ZM79.2473 57.6184L76.3309 56.618L75.5677 57.9026L78.3701 58.7779L79.2473 57.6184ZM78.8485 59.5963L78.3587 59.8691L76.741 59.3462V60.4716L79.7143 61.4151L80.0333 59.7327L78.8485 59.5963ZM82.0041 60.3011L81.1497 60.3466L80.7738 61.0514L82.1864 61.4947L82.0041 60.3011ZM86.333 50.832L85.0799 50.3432L84.8065 50.7297L85.3647 51.4799L86.333 50.832ZM117.558 35.2244L118.515 36.7703L119.313 36.8272V35.4631L120.714 34.8833L120.315 34.3945L117.558 35.2244ZM120.497 37.7593L123.231 36.6453L123.3 34.8833L120.497 35.895V37.7593ZM122.206 40.1579L125.02 39.1234L125.533 37.5888L122.901 38.6574L122.206 40.1579ZM124.006 41.6243L126.672 40.749L125.453 40.0101L122.639 41.1014L124.006 41.6243ZM124.006 45.2846L126.808 44.4093L126.045 43.1248L123.129 44.1251L124.006 45.2846ZM124.006 46.3759L123.516 46.1031L122.32 46.2509L122.639 47.9332L125.612 46.9897V45.8644L124.006 46.3759ZM120.178 48.0015L121.591 47.5581L121.215 46.8533L120.361 46.7965L120.178 48.0015ZM117 37.9753L117.558 37.225L117.285 36.8385L116.032 37.3274L117 37.9753ZM114.346 104.873V105.714L118.618 103.236V102.395L114.346 104.873ZM83.0977 122.993L78.8258 125.471V126.312L83.0977 123.834L90.6164 123.925V123.084L83.0977 122.993ZM97.1211 124.846C97.1211 124.891 97.1211 124.937 97.1097 124.982C97.1097 125.028 97.0984 125.062 97.0984 125.107C97.087 125.153 97.087 125.198 97.0756 125.244C97.0642 125.289 97.0642 125.323 97.0528 125.369C97.0414 125.414 97.03 125.46 97.0186 125.505C97.0072 125.551 96.9958 125.585 96.9844 125.63C96.9731 125.676 96.9617 125.721 96.9389 125.767C96.9275 125.801 96.9047 125.846 96.8933 125.88C96.8705 125.926 96.8591 125.971 96.8363 126.017C96.8136 126.051 96.8022 126.096 96.7794 126.13C96.7566 126.176 96.7338 126.221 96.711 126.267C96.6882 126.312 96.6541 126.369 96.6313 126.415C96.6199 126.426 96.6199 126.437 96.6085 126.449C96.5629 126.517 96.5174 126.585 96.4718 126.653C96.4604 126.665 96.449 126.676 96.449 126.687C96.4035 126.756 96.3465 126.824 96.2895 126.892C96.2781 126.903 96.2667 126.915 96.2554 126.938C96.2098 126.994 96.1528 127.051 96.1073 127.108C96.0959 127.119 96.0845 127.142 96.0617 127.154C96.0047 127.222 95.9364 127.29 95.868 127.358C95.8566 127.369 95.8453 127.381 95.8339 127.392C95.7883 127.438 95.7313 127.483 95.6744 127.54C95.6288 127.574 95.5832 127.62 95.5377 127.654C95.4921 127.688 95.4579 127.722 95.4124 127.756C95.3668 127.79 95.3212 127.836 95.2643 127.87C95.2187 127.904 95.1731 127.938 95.1276 127.972C95.082 128.006 95.025 128.04 94.9681 128.086C94.9225 128.12 94.8655 128.154 94.82 128.188C94.763 128.222 94.7061 128.256 94.6491 128.29C94.5807 128.336 94.501 128.381 94.4327 128.427C94.3073 128.495 94.182 128.563 94.0567 128.631C94.0339 128.643 94.0226 128.654 93.9998 128.665C93.8745 128.722 93.7491 128.79 93.6238 128.847C93.6011 128.859 93.5783 128.87 93.5555 128.881C93.4302 128.938 93.2935 128.995 93.1682 129.052C93.1454 129.063 93.134 129.063 93.1112 129.075C92.9745 129.131 92.8492 129.177 92.7125 129.222C92.7011 129.222 92.6897 129.234 92.6783 129.234C92.553 129.279 92.4163 129.325 92.291 129.359C92.234 129.382 92.1657 129.393 92.1087 129.416C92.0176 129.438 91.9264 129.472 91.8239 129.495C91.7669 129.507 91.6986 129.529 91.6416 129.541C91.5391 129.563 91.448 129.586 91.3455 129.609C91.2885 129.62 91.2315 129.632 91.1746 129.654C91.0607 129.677 90.9467 129.7 90.8328 129.723C90.7872 129.734 90.7417 129.745 90.6961 129.745C90.6392 129.757 90.5822 129.768 90.5366 129.768C90.4113 129.791 90.2746 129.814 90.1379 129.836C90.0696 129.848 90.0012 129.859 89.9329 129.859C89.8189 129.87 89.6936 129.893 89.5797 129.904C89.4886 129.916 89.4088 129.916 89.3177 129.927C89.238 129.939 89.1582 129.939 89.0785 129.95C88.9873 129.961 88.8962 129.961 88.8051 129.961C88.7253 129.961 88.6456 129.973 88.5658 129.973C88.4633 129.973 88.3608 129.984 88.2582 129.984C88.1899 129.984 88.1329 129.984 88.0646 129.984C87.9507 129.984 87.8254 129.984 87.7114 129.984C87.6659 129.984 87.6089 129.984 87.5633 129.984C87.4039 129.984 87.233 129.973 87.0735 129.961C87.0393 129.961 87.0051 129.961 86.971 129.95C86.8229 129.939 86.6862 129.927 86.5381 129.916V130.757C86.5722 130.757 86.6064 130.768 86.6406 130.768C86.7545 130.78 86.857 130.78 86.971 130.791C87.0051 130.791 87.0393 130.791 87.0849 130.802C87.2444 130.814 87.3925 130.814 87.5519 130.825C87.5633 130.825 87.5633 130.825 87.5747 130.825C87.6203 130.825 87.6773 130.825 87.7228 130.825C87.8367 130.825 87.9621 130.825 88.076 130.825C88.1443 130.825 88.2013 130.825 88.2696 130.825C88.3494 130.825 88.4177 130.825 88.4975 130.825C88.5203 130.825 88.5544 130.825 88.5772 130.825C88.657 130.825 88.7367 130.814 88.8165 130.814C88.9076 130.814 88.9987 130.802 89.0899 130.802C89.1696 130.791 89.2493 130.791 89.3291 130.78C89.386 130.78 89.443 130.768 89.5 130.768C89.5341 130.768 89.5569 130.757 89.5911 130.757C89.705 130.746 89.8303 130.734 89.9442 130.712C90.0126 130.7 90.0809 130.689 90.1493 130.689C90.286 130.666 90.4113 130.643 90.548 130.621C90.5936 130.609 90.6392 130.609 90.6847 130.598C90.6961 130.598 90.7075 130.598 90.7075 130.598C90.7531 130.587 90.7986 130.575 90.8442 130.575C90.9581 130.552 91.072 130.53 91.186 130.507C91.2429 130.496 91.2999 130.484 91.3568 130.461C91.4594 130.439 91.5505 130.416 91.653 130.393C91.71 130.382 91.7784 130.359 91.8353 130.348C91.9264 130.325 92.0176 130.291 92.1201 130.268C92.1771 130.245 92.2454 130.234 92.3024 130.211C92.3365 130.2 92.3707 130.189 92.4049 130.177C92.5074 130.143 92.5986 130.109 92.6897 130.075C92.7011 130.075 92.7125 130.064 92.7239 130.064C92.8606 130.018 92.9973 129.961 93.1226 129.916C93.1454 129.904 93.1568 129.904 93.1795 129.893C93.3162 129.836 93.4416 129.779 93.5669 129.723C93.5897 129.711 93.6124 129.7 93.6352 129.688C93.7605 129.632 93.8858 129.575 94.0112 129.507C94.0339 129.495 94.0453 129.484 94.0681 129.472C94.1934 129.404 94.3187 129.336 94.444 129.268C94.4896 129.245 94.5238 129.222 94.5694 129.2C94.6035 129.177 94.6377 129.154 94.6719 129.143C94.7288 129.109 94.7858 129.075 94.8428 129.041C94.8883 129.006 94.9453 128.972 94.9909 128.938C95.0478 128.904 95.0934 128.87 95.1504 128.825C95.1959 128.79 95.2415 128.756 95.287 128.722C95.3326 128.688 95.3782 128.643 95.4352 128.609C95.4807 128.574 95.5263 128.54 95.5605 128.506C95.606 128.472 95.6516 128.427 95.6972 128.393C95.7199 128.381 95.7313 128.358 95.7541 128.347C95.7883 128.313 95.8225 128.279 95.8566 128.256C95.868 128.245 95.8794 128.233 95.8908 128.222C95.9592 128.154 96.0161 128.086 96.0845 128.017C96.0959 128.006 96.1073 127.983 96.1301 127.972C96.187 127.915 96.2326 127.858 96.2782 127.801C96.2895 127.79 96.3009 127.779 96.3123 127.756C96.3123 127.745 96.3237 127.745 96.3237 127.733C96.3693 127.676 96.4148 127.608 96.4604 127.551C96.4718 127.54 96.4832 127.529 96.4832 127.517C96.5288 127.449 96.5743 127.381 96.6199 127.313C96.6313 127.301 96.6313 127.29 96.6427 127.279C96.6541 127.256 96.6769 127.222 96.6883 127.199C96.6996 127.176 96.711 127.154 96.7224 127.131C96.7452 127.085 96.768 127.04 96.7908 126.994C96.8136 126.96 96.825 126.915 96.8477 126.881C96.8705 126.835 96.8933 126.79 96.9047 126.744C96.9161 126.722 96.9275 126.699 96.9275 126.687C96.9389 126.665 96.9389 126.653 96.9503 126.631C96.9617 126.585 96.9844 126.54 96.9958 126.494C97.0072 126.449 97.0186 126.415 97.03 126.369C97.0414 126.324 97.0528 126.278 97.0642 126.233C97.0642 126.21 97.0756 126.187 97.087 126.165C97.087 126.153 97.087 126.13 97.0984 126.119C97.1098 126.074 97.1097 126.028 97.1211 125.983C97.1211 125.937 97.1325 125.903 97.1325 125.858C97.1325 125.812 97.1439 125.767 97.1439 125.721C97.1439 125.698 97.1439 125.664 97.1553 125.642C97.1553 125.619 97.1553 125.585 97.1553 125.562V124.721C97.1211 124.744 97.1211 124.789 97.1211 124.846ZM123.63 111.5C123.596 111.523 123.573 111.535 123.539 111.557C123.516 111.569 123.482 111.591 123.459 111.603C123.402 111.637 123.345 111.66 123.288 111.694C123.254 111.705 123.22 111.728 123.186 111.739C123.14 111.762 123.083 111.785 123.038 111.807C123.004 111.83 122.958 111.841 122.924 111.853C122.878 111.876 122.821 111.898 122.776 111.921C122.742 111.932 122.696 111.955 122.662 111.966C122.616 111.989 122.559 112.012 122.514 112.023C122.468 112.035 122.434 112.057 122.388 112.069C122.343 112.092 122.286 112.103 122.24 112.126C122.195 112.137 122.161 112.16 122.115 112.171C122.069 112.194 122.012 112.205 121.967 112.228C121.921 112.239 121.876 112.262 121.842 112.273C121.796 112.285 121.75 112.308 121.705 112.319C121.58 112.353 121.466 112.398 121.34 112.433C121.318 112.433 121.306 112.444 121.283 112.444C121.169 112.478 121.067 112.501 120.953 112.535C120.919 112.546 120.885 112.558 120.85 112.558C120.725 112.592 120.6 112.614 120.475 112.649H120.463C120.338 112.671 120.201 112.705 120.076 112.728C120.042 112.728 120.019 112.739 119.985 112.739C119.814 112.774 119.643 112.796 119.472 112.819C119.449 112.819 119.426 112.83 119.404 112.83C119.233 112.853 119.051 112.876 118.88 112.899C118.857 112.899 118.834 112.899 118.811 112.91C118.675 112.921 118.538 112.933 118.401 112.944C118.378 112.944 118.356 112.944 118.333 112.944C118.185 112.955 118.037 112.955 117.889 112.967C117.854 112.967 117.82 112.967 117.786 112.967C117.661 112.967 117.547 112.978 117.422 112.978C117.399 112.978 117.387 112.978 117.365 112.978C117.228 112.978 117.091 112.978 116.954 112.978C116.92 112.978 116.886 112.978 116.852 112.978C116.738 112.978 116.635 112.967 116.522 112.967C116.487 112.967 116.465 112.967 116.43 112.967C116.294 112.955 116.168 112.955 116.032 112.944C115.998 112.944 115.975 112.944 115.941 112.933C115.838 112.921 115.724 112.91 115.622 112.899C115.587 112.899 115.553 112.887 115.519 112.887C115.382 112.876 115.257 112.853 115.12 112.842C115.109 112.842 115.098 112.842 115.086 112.842C114.961 112.819 114.836 112.808 114.71 112.785C114.676 112.774 114.642 112.774 114.608 112.762C114.471 112.739 114.346 112.717 114.209 112.683H114.198V113.524C114.323 113.547 114.46 113.581 114.596 113.603C114.63 113.615 114.665 113.615 114.699 113.626C114.824 113.649 114.949 113.672 115.075 113.683C115.086 113.683 115.086 113.683 115.098 113.683C115.098 113.683 115.098 113.683 115.109 113.683C115.246 113.706 115.371 113.717 115.508 113.728C115.542 113.728 115.576 113.74 115.61 113.74C115.713 113.751 115.827 113.763 115.929 113.774C115.952 113.774 115.975 113.774 115.986 113.785C115.998 113.785 116.009 113.785 116.009 113.785C116.146 113.797 116.271 113.808 116.408 113.808C116.442 113.808 116.465 113.808 116.499 113.808C116.613 113.808 116.715 113.819 116.829 113.819C116.852 113.819 116.875 113.819 116.897 113.819C116.909 113.819 116.92 113.819 116.943 113.819C117.08 113.819 117.216 113.819 117.353 113.819C117.376 113.819 117.387 113.819 117.41 113.819C117.535 113.819 117.649 113.819 117.775 113.808C117.797 113.808 117.809 113.808 117.832 113.808C117.843 113.808 117.866 113.808 117.877 113.808C118.025 113.808 118.173 113.797 118.321 113.785C118.344 113.785 118.367 113.785 118.39 113.785C118.527 113.774 118.663 113.763 118.8 113.751C118.811 113.751 118.834 113.751 118.845 113.751C118.857 113.751 118.857 113.751 118.868 113.751C119.051 113.728 119.221 113.717 119.392 113.683C119.415 113.683 119.438 113.672 119.461 113.672C119.632 113.649 119.802 113.615 119.973 113.592C119.985 113.592 120.007 113.592 120.019 113.581C120.03 113.581 120.053 113.569 120.064 113.569C120.19 113.547 120.326 113.524 120.452 113.49H120.463C120.588 113.467 120.714 113.433 120.839 113.41C120.873 113.399 120.907 113.399 120.942 113.387C121.056 113.365 121.158 113.331 121.272 113.297C121.295 113.297 121.306 113.285 121.329 113.285C121.454 113.251 121.58 113.217 121.693 113.171C121.705 113.171 121.716 113.16 121.728 113.16C121.762 113.149 121.796 113.137 121.83 113.126C121.876 113.115 121.921 113.103 121.955 113.081C122.001 113.058 122.058 113.046 122.104 113.024C122.149 113.012 122.183 112.99 122.229 112.978C122.274 112.955 122.331 112.944 122.377 112.921C122.423 112.91 122.457 112.887 122.502 112.876C122.548 112.853 122.605 112.83 122.65 112.819C122.685 112.808 122.73 112.785 122.764 112.774C122.81 112.751 122.867 112.728 122.912 112.705C122.947 112.694 122.992 112.671 123.026 112.66C123.072 112.637 123.129 112.614 123.174 112.592C123.209 112.58 123.243 112.558 123.277 112.546C123.334 112.524 123.391 112.489 123.448 112.455C123.471 112.444 123.505 112.433 123.528 112.41C123.573 112.387 123.619 112.353 123.664 112.33L123.63 111.5ZM114.163 112.66L96.5743 122.857C96.711 123.073 96.8136 123.289 96.9047 123.505L114.163 113.501V112.66Z" fill="#99C0E3"/>
<path id="color_x5F_8" d="M142.689 23.3908V24.8117C142.689 25.812 141.595 26.4372 140.729 25.9371L106.326 6.13486C105.927 5.90751 105.676 5.47554 105.676 5.00947V3.58853C105.676 2.58819 106.77 1.96297 107.636 2.46315L133.416 17.3091C133.359 17.4342 133.313 17.582 133.313 17.7411V20.1283C133.313 20.492 133.507 20.8331 133.826 21.0149L135.888 22.2085C136.571 22.6064 137.426 22.1062 137.426 21.3219V19.6281L138.064 19.9919C137.961 20.151 137.893 20.3443 137.893 20.5602V22.9474C137.893 23.3112 138.086 23.6522 138.405 23.8341L140.467 25.0277C141.151 25.4255 142.005 24.9254 142.005 24.141V22.2767L142.028 22.2881C142.438 22.4927 142.689 22.9247 142.689 23.3908ZM191.583 66.9738V70.7138C191.583 71.9869 190.204 72.7826 189.088 72.1461L185.727 70.2136C185.215 69.918 184.896 69.3724 184.896 68.7813V64.9163C184.896 64.3252 185.192 63.8364 185.625 63.5522L184.144 62.6997V66.1667C184.144 67.4399 182.765 68.2356 181.649 67.5991L178.288 65.6666C177.776 65.371 177.457 64.8254 177.457 64.2343V60.3693C177.457 59.8805 177.662 59.4599 177.981 59.1643L142.677 38.8279V46.5237L189.35 73.4079C190.751 74.215 192.505 73.2032 192.505 71.5891V68.7358C192.505 68.0197 192.152 67.3603 191.583 66.9738Z" fill="#D9E3EE"/>
<path id="color_x5F_7" d="M86.7316 51.9224L85.5241 52.9114V54.0027L86.7316 54.6961V55.867L85.1595 56.1625L84.8975 57.2538L85.5696 58.6406L84.8975 59.4705L83.9064 59.0158L83.2343 59.6524L83.052 61.1415L82.1976 61.4939L82.0154 60.2889L81.1496 60.3458L80.4774 61.5962L79.7256 61.4143L80.0446 59.7319L79.6686 59.1181L78.3586 59.8683V58.7771L79.2357 57.6176L79.2927 56.6627L78.2788 56.2307L78.3586 55.1053L79.7256 54.5711L80.1585 53.6389L79.4636 52.1498L79.942 51.3768L81.3318 51.8315L81.8673 51.2404V49.3761L83.0406 48.9441V50.3083L83.8381 50.2514L84.795 48.7054L85.5582 49.6148L84.795 50.7061L85.3532 51.4564L86.3101 50.8198L86.7316 51.9224ZM115.633 38.4292L116.84 39.4182V40.5094L115.633 41.2029V42.3737L117.205 42.6693L117.467 43.7606L116.795 45.1474L117.467 45.9772L118.458 45.5225L119.13 46.1591L119.312 47.6482L120.167 48.0006L120.349 46.7957L121.203 46.8525L121.876 48.1029L122.627 47.9211L122.309 46.2387L122.684 45.6248L123.995 46.3751V45.2838L123.117 44.1243L123.06 43.1694L124.074 42.7375L123.995 41.6121L122.627 41.0778L122.195 40.1457L122.889 38.6565L122.411 37.8835L121.021 38.3382L120.486 37.7471V35.8829L119.312 35.4509V36.815L118.515 36.7582L117.558 35.2122L116.795 36.1216L117.558 37.2129L117 37.9631L116.043 37.3265L115.633 38.4292ZM121.215 46.8525L121.591 47.5573L121.887 48.1029L121.215 46.8525ZM142.689 24.9018V72.4863C142.689 73.5435 141.538 74.2028 140.627 73.6685L106.36 53.9231C105.938 53.673 105.676 53.2297 105.676 52.7409V5.09961C105.676 5.56568 105.927 5.99764 106.326 6.22499L140.729 26.0272C141.595 26.5274 142.689 25.9022 142.689 24.9018ZM132.208 36.8264C132.208 36.042 131.798 35.3031 131.114 34.9053L115.587 25.5612C114.084 24.6631 112.17 25.7317 112.17 27.4823V45.2952C112.17 46.1023 112.603 46.8412 113.298 47.239L128.836 56.1853C130.34 57.0492 132.219 55.9693 132.219 54.2414V36.8264H132.208Z" fill="#EEF3FB"/>
<path id="color_x5F_6" d="M69.0059 98.6427L88.2013 109.556L88.224 113.227L38.7946 142.226L15.5665 128.801C12.5444 130.505 12.5077 134.845 15.5005 136.6L79.9761 174.417C81.9575 175.579 84.408 175.597 86.4066 174.465L165.047 129.912C169.373 127.461 169.406 121.239 165.105 118.743L136.765 102.292C135.922 102.53 135.227 102.349 134.703 102.008C134.749 105.566 134.76 108.362 134.76 108.362L134.031 123.924L133.438 136.565C133.541 136.656 133.621 136.735 133.621 136.735C133.621 136.735 138.428 136.781 137.073 138.372C135.728 139.975 131.217 139.509 130.921 139.384C130.67 139.27 130.841 137.542 130.898 136.929C130.807 135.758 128.87 111.84 128.483 111.397C128.483 111.397 128.472 111.397 128.472 111.386C128.118 111.306 127.537 129.165 127.389 132.552C128.164 132.529 129.588 132.552 129.44 132.995C129.223 133.586 127.708 136.19 126.535 136.406C125.35 136.622 124.633 136.326 124.598 136.11C124.576 135.985 124.724 134.701 124.838 133.712L123.676 112.329C123.63 112.352 123.584 112.386 123.539 112.409C123.516 112.42 123.482 112.432 123.459 112.454C123.402 112.488 123.345 112.511 123.288 112.545C123.254 112.557 123.22 112.579 123.186 112.591C123.14 112.613 123.083 112.636 123.038 112.659C123.004 112.682 122.958 112.693 122.924 112.704C122.878 112.727 122.821 112.75 122.776 112.773C122.742 112.784 122.696 112.807 122.662 112.818C122.616 112.841 122.559 112.863 122.514 112.875C122.468 112.886 122.434 112.909 122.388 112.92C122.343 112.943 122.286 112.954 122.24 112.977C122.195 112.989 122.161 113.011 122.115 113.023C122.069 113.045 122.012 113.057 121.967 113.079C121.921 113.091 121.876 113.114 121.842 113.125C121.807 113.136 121.773 113.148 121.739 113.159C121.728 113.159 121.716 113.17 121.705 113.17C121.58 113.205 121.466 113.25 121.34 113.284C121.318 113.284 121.306 113.295 121.283 113.295C121.169 113.33 121.067 113.352 120.953 113.386C120.919 113.398 120.885 113.409 120.85 113.409C120.725 113.443 120.6 113.466 120.475 113.489H120.463C120.338 113.511 120.201 113.546 120.076 113.568C120.064 113.568 120.042 113.58 120.03 113.58C120.019 113.58 119.996 113.58 119.985 113.591C119.814 113.625 119.643 113.648 119.472 113.671C119.449 113.671 119.426 113.682 119.404 113.682C119.233 113.705 119.051 113.727 118.88 113.75C118.868 113.75 118.868 113.75 118.857 113.75C118.845 113.75 118.823 113.75 118.811 113.75C118.675 113.762 118.538 113.773 118.401 113.784C118.378 113.784 118.356 113.784 118.333 113.784C118.185 113.796 118.037 113.796 117.889 113.807C117.877 113.807 117.854 113.807 117.843 113.807C117.82 113.807 117.809 113.807 117.786 113.807C117.661 113.807 117.547 113.818 117.421 113.818C117.399 113.818 117.387 113.818 117.365 113.818C117.228 113.818 117.091 113.818 116.954 113.818C116.943 113.818 116.932 113.818 116.909 113.818C116.886 113.818 116.863 113.818 116.84 113.818C116.727 113.818 116.624 113.807 116.51 113.807C116.476 113.807 116.453 113.807 116.419 113.807C116.282 113.796 116.157 113.796 116.02 113.784C116.009 113.784 115.997 113.784 115.997 113.784C115.975 113.784 115.952 113.784 115.941 113.773C115.838 113.762 115.724 113.75 115.622 113.739C115.587 113.739 115.553 113.727 115.519 113.727C115.382 113.716 115.257 113.693 115.12 113.682C115.12 113.682 115.12 113.682 115.109 113.682C115.098 113.682 115.098 113.682 115.086 113.682C114.961 113.659 114.836 113.648 114.71 113.625C114.676 113.614 114.642 113.614 114.608 113.602C114.471 113.58 114.346 113.557 114.209 113.523L96.9502 123.526C97.0983 123.913 97.1781 124.311 97.1781 124.708V124.697V125.538C97.1781 125.561 97.1781 125.595 97.1781 125.618C97.1781 125.641 97.1781 125.675 97.1667 125.697C97.1667 125.743 97.1667 125.788 97.1553 125.834C97.1553 125.879 97.1439 125.913 97.1439 125.959C97.1325 126.004 97.1325 126.05 97.1211 126.095C97.1211 126.107 97.1211 126.129 97.1097 126.141C97.1097 126.163 97.0983 126.186 97.0869 126.209C97.0756 126.254 97.0642 126.3 97.0528 126.345C97.0414 126.391 97.03 126.425 97.0186 126.47C97.0072 126.516 96.9958 126.561 96.973 126.607C96.9616 126.63 96.9616 126.641 96.9502 126.664C96.9388 126.686 96.9275 126.709 96.9275 126.721C96.9047 126.766 96.8933 126.811 96.8705 126.857C96.8477 126.891 96.8363 126.936 96.8135 126.971C96.7908 127.016 96.768 127.062 96.7452 127.107C96.7338 127.13 96.7224 127.152 96.711 127.175C96.6996 127.198 96.6768 127.232 96.6654 127.255C96.654 127.266 96.6541 127.278 96.6427 127.289C96.5971 127.357 96.5515 127.425 96.506 127.493C96.4946 127.505 96.4832 127.516 96.4832 127.528C96.4376 127.584 96.392 127.653 96.3465 127.709C96.3465 127.721 96.3351 127.721 96.3351 127.732C96.3237 127.744 96.3123 127.755 96.3009 127.778C96.2553 127.835 96.1984 127.891 96.1528 127.948C96.1414 127.96 96.13 127.982 96.1072 127.994C96.0503 128.062 95.9819 128.13 95.9136 128.198C95.9022 128.21 95.8908 128.221 95.8794 128.232C95.8452 128.266 95.8111 128.301 95.7769 128.323C95.7541 128.335 95.7427 128.357 95.7199 128.369C95.6743 128.403 95.6288 128.448 95.5832 128.482C95.5376 128.517 95.5035 128.551 95.4579 128.585C95.4123 128.619 95.3668 128.664 95.3098 128.698C95.2642 128.733 95.2187 128.767 95.1731 128.801C95.1275 128.835 95.0706 128.869 95.0136 128.914C94.968 128.949 94.9111 128.983 94.8655 129.017C94.8086 129.051 94.7516 129.085 94.6946 129.119C94.6605 129.142 94.6263 129.165 94.5921 129.176C94.5579 129.199 94.5124 129.221 94.4668 129.244C94.3415 129.312 94.2162 129.381 94.0909 129.449C94.0681 129.46 94.0567 129.471 94.0339 129.483C93.9086 129.54 93.7833 129.608 93.658 129.665C93.6352 129.676 93.6124 129.687 93.5896 129.699C93.4643 129.756 93.3276 129.812 93.2023 129.869C93.1795 129.881 93.1681 129.881 93.1453 129.892C93.0087 129.949 92.8833 129.994 92.7466 130.04C92.7352 130.04 92.7238 130.051 92.7125 130.051C92.6213 130.085 92.5188 130.119 92.4277 130.153C92.3935 130.165 92.3593 130.176 92.3251 130.188C92.2682 130.21 92.1998 130.222 92.1429 130.244C92.0517 130.267 91.9606 130.301 91.8581 130.324C91.8011 130.335 91.7327 130.358 91.6758 130.369C91.5733 130.392 91.4821 130.415 91.3796 130.438C91.3226 130.449 91.2657 130.46 91.2087 130.483C91.0948 130.506 90.9809 130.529 90.867 130.551C90.8214 130.563 90.7758 130.574 90.7303 130.574C90.7189 130.574 90.7075 130.574 90.7075 130.574C90.6619 130.585 90.6163 130.585 90.5708 130.597C90.4455 130.62 90.3088 130.642 90.1721 130.665C90.1037 130.676 90.0354 130.688 89.967 130.688C89.8531 130.699 89.7278 130.722 89.6139 130.733C89.5797 130.733 89.5569 130.745 89.5227 130.745C89.4658 130.745 89.4088 130.756 89.3518 130.756C89.2721 130.767 89.1924 130.767 89.1126 130.779C89.0215 130.79 88.9303 130.79 88.8392 130.79C88.7595 130.79 88.6797 130.801 88.6 130.801C88.5772 130.801 88.543 130.801 88.5202 130.801C88.4405 130.801 88.3721 130.801 88.2924 130.801C88.224 130.801 88.1671 130.801 88.0987 130.801C87.9848 130.801 87.8595 130.801 87.7456 130.801C87.7 130.801 87.6431 130.801 87.5975 130.801C87.5861 130.801 87.5861 130.801 87.5747 130.801C87.4152 130.801 87.2557 130.79 87.1076 130.779C87.0735 130.779 87.0393 130.779 86.9937 130.767C86.8798 130.756 86.7773 130.756 86.6634 130.745C86.6292 130.745 86.595 130.733 86.5608 130.733V129.892L90.7986 127.437L90.6391 123.913L83.1205 123.822L78.8485 126.3C78.8143 126.163 78.7802 126.016 78.7688 125.879C78.7574 125.743 78.746 125.595 78.746 125.459V124.618C78.746 124.629 78.746 124.64 78.746 124.64C78.7346 123.276 79.6232 121.912 81.4231 120.878C84.0204 119.377 87.7798 118.956 91.0378 119.627L108.297 109.624C108.148 109.237 108.069 108.839 108.069 108.453V107.612C108.069 106.259 108.957 104.906 110.746 103.872C112.899 102.621 115.861 102.121 118.663 102.371V103.212L114.425 105.668L114.585 109.192L122.104 109.283L122.252 109.203C122.24 109.18 122.24 109.158 122.24 109.135C122.104 108.43 122.525 107.18 122.776 106.498L122.411 106.361C122.411 106.361 122.798 99.5862 123.129 94.3003L103.634 82.9844C101.672 81.8457 99.2559 81.8233 97.2735 82.9256L69.0059 98.6427ZM52.9775 94.289L73.688 106.066L32.5404 130.074L11.83 118.297L52.9775 94.289ZM60.667 114.989L68.7211 119.57L55.8597 126.993L47.8625 122.458L60.667 114.989ZM51.8383 56.6738L8.43518 82.0007L8.61745 115.433L51.9978 90.1284L51.8383 56.6738ZM21.7865 87.3207L23.0966 85.0699L21.7865 84.3196L24.3952 79.8067L25.7053 80.557L27.0154 78.3062L29.6241 79.8067L28.314 82.0575L29.6241 82.8078L27.0154 87.3207L25.7053 86.5704L24.3952 88.8212L21.7865 87.3207ZM40.0477 88.8212L37.439 93.3341L34.8302 91.8336L32.2215 96.3465L29.6127 94.846L26.9926 99.3589L24.3952 97.847V94.846L27.0382 96.3692L29.6127 91.8449L32.1873 93.3227L34.8302 88.8439L37.4503 90.3785L40.0477 85.8315V88.8212ZM40.0591 76.8057L37.4503 81.3186L36.1403 80.5684L34.8302 82.8191L32.2215 81.3186L33.5315 79.0678L32.2215 78.3176L34.8302 73.8047L36.1403 74.5549L37.4503 72.3042L40.0591 73.8047L38.749 76.0555L40.0591 76.8057Z" fill="#D9E3EE"/>
<path id="color_x5F_5" d="M144.865 92.4706C144.5 93.3687 143.611 93.9371 142.939 94.2212C142.677 93.2209 141.231 92.9708 141.231 92.9708L140.98 93.2095C140.889 92.8912 140.832 92.141 142.13 91.8C143.737 91.3794 143.27 90.6177 143.691 90.4131C144.113 90.1971 145.457 91.0042 144.865 92.4706ZM123.425 107.851C123.425 107.783 123.414 107.408 123.402 106.771L122.73 106.521C122.491 107.214 122.069 108.453 122.195 109.158C122.286 109.658 123.003 110.318 123.584 110.704L123.425 107.851ZM134.293 82.3308C134.099 82.5809 133.849 82.3194 133.951 81.6488C134.008 81.3191 134.259 81.2054 134.498 81.1713C134.225 79.8641 133.826 78.625 133.826 78.625C133.883 79.182 132.402 79.5344 131.627 79.8413C130.852 80.1482 131.388 81.8875 131.388 81.8875H130.966L130.955 81.2736C130.955 81.2736 131.171 80.6029 129.918 79.9664C128.665 79.3298 129.816 81.41 129.816 81.41C129.52 82.4786 128.529 82.0012 127.697 81.9898C127.982 82.5241 128.267 82.9674 128.38 83.2288C128.46 83.388 128.711 83.5585 129.064 83.7063V84.3429L131.855 84.7976C131.821 84.6384 131.787 84.4793 131.752 84.3315C133.017 84.4793 134.236 84.4452 134.566 84.07C134.794 83.8086 134.805 83.1606 134.714 82.4104C134.555 82.3876 134.418 82.1717 134.293 82.3308Z" fill="#FFD2BB"/>
<path id="color_x5F_4" d="M187.391 63.565L190.751 65.4975C191.264 65.793 191.583 66.3387 191.583 66.9298V70.7948C191.583 72.0679 190.204 72.8636 189.088 72.2271L185.727 70.2946C185.215 69.999 184.896 69.4534 184.896 68.8623V64.9973C184.896 63.7242 186.286 62.9284 187.391 63.565ZM137.893 20.6412V23.0284C137.893 23.3922 138.086 23.7332 138.405 23.9151L140.467 25.1087C141.151 25.5065 142.005 25.0064 142.005 24.222V21.8348C142.005 21.4711 141.812 21.13 141.493 20.9482L139.431 19.7546C138.747 19.3567 137.893 19.8455 137.893 20.6412Z" fill="#01A88F"/>
<path id="color_x5F_3" d="M170.918 125.699L170.899 127.492C170.876 129.769 169.65 131.864 167.677 133.002L86.3755 179.875C84.3642 181.035 81.8845 181.022 79.8857 179.841L15.714 141.935C13.7336 140.765 12.5277 138.628 12.5507 136.327L12.5705 134.349L79.9383 174.36C81.9391 175.549 84.4254 175.565 86.4413 174.402L170.918 125.699ZM90.1949 40.9764V58.7894C90.1949 59.5964 89.762 60.3353 89.0671 60.7332L73.5286 69.6794C72.0248 70.5434 70.1452 69.4635 70.1452 67.7356V50.3205C70.1452 49.5362 70.5553 48.7973 71.2388 48.3994L86.7773 39.0553C88.2811 38.1459 90.1949 39.2258 90.1949 40.9764ZM85.5356 54.0036V52.9123L86.7432 51.9234L86.3445 50.8321L85.0913 50.3433L84.8179 50.7298L85.5812 49.6385L84.8179 48.7291L82.0383 47.8993L81.6396 48.3881L83.0408 48.9678L80.3409 47.8424L79.065 48.3881L79.1334 50.15L78.1195 50.6502L79.9422 51.4005L78.0967 50.6502L77.493 50.4001L76.8322 51.1049L77.3448 52.6395L76.912 53.5148L75.693 54.2537V55.3905L78.279 56.2544L76.2398 55.5723L76.331 56.6295L75.5677 57.9141L75.693 59.0167L76.7411 59.3577V60.4831L79.7144 61.4266L80.4662 61.6085L80.7624 61.0629L82.175 61.5062L83.0294 61.1538L83.2117 59.6647L83.8838 59.0281L84.8749 59.4828L85.547 58.6529L84.8749 57.2661L85.1369 56.1748L86.709 55.8793V54.7084L85.5356 54.0036ZM115.587 25.5621L131.126 34.9062C131.798 35.3154 132.22 36.0429 132.22 36.8273V54.2423C132.22 55.9702 130.34 57.0501 128.836 56.1862L113.298 47.24C112.603 46.8421 112.17 46.0918 112.17 45.2961V27.4832C112.17 25.7326 114.084 24.6527 115.587 25.5621ZM115.633 41.2038V42.3747L117.205 42.6702L117.467 43.7615L116.795 45.1483L117.467 45.9782L118.458 45.5235L119.13 46.16L119.313 47.6492L120.167 48.0016L121.58 47.5582L121.876 48.1039L122.628 47.922L125.601 46.9785V45.8531L126.649 45.5121L126.774 44.4094L126.011 43.1249L126.102 42.0677L124.063 42.7498L126.649 41.8858V40.7491L125.43 40.0102L124.997 39.1349L125.51 37.6003L124.849 36.8955L124.245 37.1456L122.4 37.8958L124.223 37.1456L123.209 36.6454L123.277 34.8835L122.001 34.3378L119.301 35.4632L120.702 34.8835L120.304 34.3947L117.524 35.2245L116.761 36.1339L117.524 37.2252L117.251 36.8387L115.998 37.3275L115.599 38.4188L116.806 39.4077V40.499L115.633 41.2038ZM189.35 73.4762L142.689 46.592V72.4872C142.689 73.5444 141.538 74.2037 140.627 73.6694L112.352 57.3911V80.6718C112.352 82.1041 113.115 83.4228 114.357 84.1389L123.414 89.3566C123.847 85.4235 125.419 85.4462 125.726 85.2416C126.66 84.6277 127.469 84.5595 128.039 84.6391C128.073 84.6391 128.096 84.6505 128.13 84.6505C128.244 84.6732 128.358 84.6959 128.449 84.73C128.836 84.8551 129.053 85.0256 129.053 85.0256V84.3435V83.707C128.7 83.5592 128.449 83.4 128.369 83.2295C128.244 82.9681 127.97 82.5247 127.686 81.9905C126.843 81.9791 126.922 81.2288 126.569 80.3763C126.216 79.5237 126.307 79.3873 126.729 77.4889C127.162 75.5906 129.907 75.6247 129.907 75.6247C129.907 75.6247 131.81 74.0559 133.45 75.4428C135.09 76.8296 133.815 78.6371 133.815 78.6371C133.815 78.6371 134.213 79.8761 134.487 81.1834C134.726 81.1493 134.965 81.2061 134.965 81.2061C134.965 81.2061 135.227 81.7177 134.965 82.2178C134.874 82.3997 134.783 82.4338 134.703 82.4111C134.794 83.1613 134.783 83.8093 134.555 84.0707C134.225 84.4459 133.006 84.4913 131.741 84.3322C131.775 84.48 131.81 84.6391 131.844 84.7982C131.935 85.162 132.015 85.503 132.06 85.6622C132.072 85.719 132.083 85.7531 132.083 85.7531C132.083 85.7531 132.094 85.7531 132.117 85.7645C132.129 85.7645 132.128 85.7645 132.14 85.7759C132.174 85.7872 132.231 85.81 132.288 85.8327C132.288 85.8327 132.299 85.8327 132.299 85.8441C132.322 85.8554 132.345 85.8668 132.368 85.8668C132.425 85.8895 132.482 85.9123 132.55 85.9464C132.584 85.9577 132.607 85.9691 132.641 85.9918C133.12 86.2306 133.78 86.6398 134.111 87.2195L134.133 87.1854C134.247 87.2423 137.449 88.6405 137.118 96.9501L140.98 93.2102C140.889 92.8919 140.832 92.1417 142.131 91.8006C143.737 91.38 143.27 90.6184 143.691 90.4138C144.113 90.1978 145.457 91.0049 144.876 92.4713C144.511 93.3694 143.623 93.9377 142.951 94.2219C142.985 94.3697 142.996 94.5288 142.985 94.7107C142.985 94.7107 141.755 96.9842 140.251 99.0531L186.502 125.699C189.179 127.245 192.517 125.312 192.517 122.232V71.6574C192.506 73.2716 190.751 74.2833 189.35 73.4762Z" fill="#0034CC"/>
<path id="color_x5F_2" d="M179.952 59.0058L183.312 60.9383C183.825 61.2338 184.144 61.7795 184.144 62.3706V66.2356C184.144 67.5087 182.765 68.3045 181.649 67.6679L178.288 65.7354C177.776 65.4398 177.457 64.8942 177.457 64.3031V60.4381C177.457 59.165 178.846 58.3692 179.952 59.0058ZM133.313 17.8326V20.2198C133.313 20.5836 133.507 20.9246 133.826 21.1065L135.888 22.3001C136.571 22.6979 137.426 22.1978 137.426 21.4134V19.0262C137.426 18.6625 137.232 18.3214 136.913 18.1396L134.851 16.946C134.167 16.5481 133.313 17.0369 133.313 17.8326ZM122.024 34.3383L119.324 35.4637L120.497 35.8956L123.3 34.8839L122.024 34.3383ZM122.901 38.6693L125.532 37.6008L124.872 36.896L124.268 37.1461L122.422 37.8963L122.901 38.6693ZM120.497 37.7599L121.033 38.351L122.445 37.9304L122.422 37.8963L124.245 37.1461L123.231 36.6459L120.497 37.7599ZM122.639 41.102L125.453 40.0107L125.02 39.1354L122.206 40.1698L122.639 41.102ZM124.086 42.7503L126.672 41.8863V40.7496L124.006 41.6249L124.086 42.7503ZM123.117 44.1257L126.034 43.1254L126.125 42.0682L124.086 42.7503L123.072 43.1822L123.117 44.1257ZM124.006 46.3765L126.672 45.5012L126.797 44.3985L123.994 45.2738V46.3765H124.006ZM122.32 46.2401L123.516 46.0923L122.696 45.6262L122.32 46.2401ZM79.0648 48.3772L81.8672 49.3889L83.0406 48.9569L80.3407 47.8315L79.0648 48.3772ZM79.942 51.3896L78.0965 50.6393L77.4928 50.3892L76.832 51.094L79.4636 52.1626L79.942 51.3896ZM79.1332 50.1391L78.1193 50.6393L79.942 51.3896L79.9192 51.4237L81.3318 51.8443L81.8672 51.2532L79.1332 50.1391ZM80.1585 53.6517L77.3447 52.6173L76.9118 53.4926L79.7256 54.5838L80.1585 53.6517ZM78.3699 55.1181L75.7042 54.2428V55.3796L78.2902 56.2435L78.3699 55.1181ZM79.3041 56.6755L78.2902 56.2435L76.251 55.5615L76.3422 56.6186L79.2585 57.619L79.3041 56.6755ZM78.3699 58.7785L75.5675 57.9032L75.6928 59.0058L78.3585 59.8811V58.7785H78.3699ZM79.68 59.1309L78.8598 59.5969L80.0559 59.7447L79.68 59.1309ZM55.0279 90.6871L5.59849 119.526L5.39343 81.4453L54.8457 52.5945L55.0279 90.6871ZM51.9977 90.1301L51.8382 56.6868L8.43507 82.0137L8.61734 115.446L51.9977 90.1301ZM88.1898 109.557L38.7717 138.397L5.60988 119.538L55.0393 90.6985L88.1898 109.557ZM73.6879 106.067L52.9774 94.2906L11.8299 118.299L32.5403 130.076L73.6879 106.067ZM68.721 119.572L60.6669 114.991L47.8624 122.459L55.8595 126.995L68.721 119.572ZM127.401 132.542C127.389 132.906 127.378 133.111 127.366 133.088C127.31 132.917 125.794 134.941 124.837 133.702V133.69C124.724 134.679 124.575 135.964 124.598 136.089C124.644 136.305 125.362 136.589 126.535 136.385C127.72 136.169 129.235 133.565 129.44 132.974C129.599 132.554 128.175 132.531 127.401 132.542ZM133.621 136.726C133.621 136.726 133.552 136.657 133.438 136.555V136.623C133.438 136.623 132.425 137.908 130.909 136.964C130.909 136.964 130.909 136.953 130.909 136.919C130.852 137.533 130.67 139.272 130.932 139.374C131.228 139.499 135.74 139.965 137.084 138.363C138.417 136.771 133.621 136.726 133.621 136.726ZM141.219 92.972L137.118 96.9506C137.46 88.6523 134.247 87.2427 134.133 87.1859L134.111 87.22C133.552 86.2424 132.083 85.7536 132.083 85.7536C132.083 85.7536 131.957 85.2989 131.844 84.7987L129.052 84.344V85.0261C129.052 85.0261 127.697 83.9575 125.726 85.2421C125.407 85.4694 123.676 85.4239 123.357 90.0732C123.038 94.7226 122.365 106.397 122.365 106.397L123.402 106.772C123.414 107.454 123.425 107.852 123.425 107.852L123.47 108.614C126.364 109.114 130.852 109.534 134.748 108.648L134.76 108.352C134.76 108.352 134.748 105.544 134.703 101.998C135.261 102.362 136.013 102.555 136.947 102.225C139.362 101.384 142.962 94.7112 142.962 94.7112C143.133 93.313 141.219 92.972 141.219 92.972ZM34.8415 82.8208L36.1516 80.57L37.4616 81.3203L40.0704 76.8074L38.7603 76.0571L40.0704 73.8063L37.4616 72.3058L36.1402 74.5566L34.8301 73.8063L32.2327 78.3079L33.5428 79.0581L32.2327 81.3089L34.8415 82.8208ZM24.3951 88.8342L25.7052 86.5834L27.0153 87.3337L29.624 82.8208L28.3139 82.0705L29.624 79.8197L27.0039 78.3079L25.6938 80.5586L24.3837 79.8084L21.775 84.3213L23.0851 85.0715L21.775 87.3223L24.3951 88.8342ZM40.0476 85.8218L37.4502 90.3688L34.8301 88.8342L32.1872 93.313L29.6126 91.8352L27.038 96.3595L24.3951 94.8362V97.8373L26.9925 99.3491L29.6126 94.8362L32.2214 96.3368L34.8301 91.8239L37.4388 93.3244L40.0476 88.8115V85.8218Z" fill="#7082A0"/>
<path id="color_x5F_1" d="M127.686 81.9913C126.843 81.9799 126.922 81.2297 126.569 80.3771C126.216 79.5245 126.307 79.3881 126.729 77.4898C127.162 75.5914 129.907 75.6255 129.907 75.6255C129.907 75.6255 131.81 74.0568 133.45 75.4436C135.09 76.8304 133.815 78.6379 133.815 78.6379C133.872 79.1949 132.391 79.5473 131.616 79.8542C130.841 80.1611 131.377 81.9004 131.377 81.9004H130.955L130.944 81.2865C130.944 81.2865 131.16 80.6158 129.907 79.9792C128.654 79.3427 129.805 81.4229 129.805 81.4229C129.52 82.4801 128.529 82.0027 127.686 81.9913ZM134.977 81.2069C134.977 81.2069 134.065 80.991 133.963 81.6616C133.86 82.3323 134.111 82.5938 134.304 82.3437C134.498 82.0936 134.715 82.7302 134.977 82.2187C135.239 81.7071 134.977 81.2069 134.977 81.2069ZM123.585 110.717C123.026 110.342 122.354 109.728 122.206 109.228L122.058 109.307L114.539 109.217L114.346 104.863L118.618 102.385C115.815 102.135 112.853 102.635 110.7 103.885C108.103 105.386 107.397 107.568 108.57 109.444L90.981 119.641C87.7343 118.97 83.9636 119.379 81.3663 120.891C79.2132 122.141 78.3588 123.847 78.8031 125.472L83.075 122.994L90.5937 123.085L90.7874 127.439L86.5154 129.917C89.3178 130.167 92.2797 129.667 94.4328 128.416C97.0301 126.916 97.7364 124.733 96.5631 122.858L114.152 112.661C117.342 113.32 121.033 112.934 123.619 111.501L123.585 110.717ZM134.76 108.364L134.749 108.66C130.853 109.546 126.364 109.114 123.471 108.625L123.425 107.864C123.425 107.864 123.425 107.852 123.425 107.841C123.425 107.864 123.425 107.864 123.425 107.864L124.826 133.725C125.783 134.964 127.298 132.941 127.355 133.111C127.412 133.282 128.084 110.956 128.483 111.41C128.882 111.854 130.898 136.987 130.898 136.987C132.413 137.942 133.427 136.646 133.427 136.646L134.76 108.364C134.76 108.364 134.76 108.341 134.76 108.284C134.76 108.33 134.76 108.364 134.76 108.364Z" fill="#000040"/>
</g>
<defs>
<filter id="filter0_d_836_4990" x="0.363159" y="0.287109" width="194.154" height="183.465" filterUnits="userSpaceOnUse" color-interpolation-filters="sRGB">
<feFlood flood-opacity="0" result="BackgroundImageFix"/>
<feColorMatrix in="SourceAlpha" type="matrix" values="0 0 0 0 0 0 0 0 0 0 0 0 0 0 0 0 0 0 127 0" result="hardAlpha"/>
<feMorphology radius="2" operator="dilate" in="SourceAlpha" result="effect1_dropShadow_836_4990"/>
<feOffset/>
<feComposite in2="hardAlpha" operator="out"/>
<feColorMatrix type="matrix" values="0 0 0 0 0.498039 0 0 0 0 0.6 0 0 0 0 0.898039 0 0 0 1 0"/>
<feBlend mode="normal" in2="BackgroundImageFix" result="effect1_dropShadow_836_4990"/>
<feBlend mode="normal" in="SourceGraphic" in2="effect1_dropShadow_836_4990" result="shape"/>
</filter>
</defs>
</svg>
