<svg width="454" height="474" viewBox="0 0 454 474" fill="none" xmlns="http://www.w3.org/2000/svg">
    <g filter="url(#filter0_d_812_13483)">
        <path d="M180.536 349.669C180.574 349.669 180.612 349.669 180.651 349.688C180.612 349.688 180.574 349.688 180.536 349.669ZM198.219 324.018C198.238 324.018 198.276 324.018 198.296 324.018C198.257 324.018 198.238 324.018 198.219 324.018ZM195.204 328.184C195.185 328.184 195.166 328.184 195.166 328.184C195.166 328.203 195.185 328.184 195.204 328.184ZM196.088 327.954C196.068 327.954 196.03 327.973 196.011 327.973C196.049 327.973 196.068 327.973 196.088 327.954ZM196.76 327.723C196.664 327.762 196.568 327.8 196.491 327.819C196.587 327.8 196.683 327.762 196.76 327.723ZM199.697 323.826C199.62 323.845 199.563 323.845 199.486 323.864C199.563 323.845 199.64 323.826 199.697 323.826ZM198.43 323.998C198.468 323.998 198.526 323.979 198.564 323.979C198.526 323.979 198.468 323.979 198.43 323.998ZM199.236 323.883C199.313 323.864 199.39 323.864 199.467 323.845C199.39 323.864 199.313 323.883 199.236 323.883ZM198.737 323.96C198.699 323.96 198.641 323.979 198.603 323.979C198.641 323.96 198.699 323.96 198.737 323.96ZM198.776 323.941C198.833 323.941 198.891 323.922 198.968 323.922C198.91 323.941 198.833 323.941 198.776 323.941ZM176.945 347.672C176.926 347.634 176.907 347.614 176.868 347.576C176.888 347.595 176.907 347.634 176.945 347.672ZM181.054 349.726C181.016 349.726 180.996 349.726 180.958 349.726C180.996 349.726 181.035 349.726 181.054 349.726ZM176.792 347.461C176.811 347.499 176.83 347.518 176.849 347.557C176.83 347.518 176.811 347.48 176.792 347.461ZM176.734 347.346C176.753 347.365 176.772 347.403 176.792 347.422C176.753 347.403 176.753 347.384 176.734 347.346ZM179.441 349.438C179.537 349.477 179.633 349.496 179.748 349.515C179.633 349.515 179.537 349.477 179.441 349.438C179.422 349.438 179.403 349.419 179.384 349.419C179.403 349.438 179.422 349.438 179.441 349.438ZM194.705 328.28C194.724 328.28 194.763 328.28 194.782 328.261C194.763 328.261 194.724 328.28 194.705 328.28ZM179.076 349.323H179.096C179.192 349.362 179.268 349.381 179.364 349.419C179.268 349.381 179.172 349.362 179.096 349.323H179.076C178.865 349.246 178.673 349.15 178.481 349.035C177.809 348.67 177.348 348.21 177.041 347.787C177.348 348.19 177.828 348.651 178.481 349.035C178.654 349.131 178.865 349.227 179.076 349.323ZM176.676 347.25C176.696 347.269 176.715 347.307 176.715 347.326C176.696 347.307 176.676 347.269 176.676 347.25ZM194.283 328.318C194.302 328.318 194.302 328.318 194.321 328.318C194.321 328.318 194.302 328.318 194.283 328.318ZM198.142 324.018C198.123 324.037 198.142 324.037 198.142 324.018V324.018ZM193.515 279.666C193.534 279.685 193.572 279.685 193.592 279.704C193.572 279.685 193.553 279.666 193.515 279.666ZM203.268 269.336C203.268 269.355 203.288 269.394 203.288 269.413V269.394C203.268 269.374 203.268 269.355 203.268 269.336ZM193.841 280.05L193.86 280.069C193.86 280.069 193.86 280.05 193.841 280.05ZM193.822 280.03L193.803 280.011C193.822 280.011 193.822 280.011 193.822 280.03ZM193.438 279.627C193.457 279.627 193.476 279.646 193.496 279.646C193.476 279.646 193.457 279.646 193.438 279.627ZM193.188 279.57C193.188 279.57 193.169 279.57 193.15 279.57C193.169 279.57 193.169 279.57 193.188 279.57ZM193.726 279.877C193.726 279.858 193.707 279.838 193.707 279.819C193.726 279.838 193.726 279.858 193.726 279.877ZM193.611 279.704C193.63 279.723 193.649 279.723 193.668 279.742C193.63 279.723 193.611 279.723 193.611 279.704ZM193.054 279.57C193.035 279.57 193.035 279.57 193.016 279.57C193.035 279.55 193.035 279.55 193.054 279.57ZM193.342 279.608C193.361 279.608 193.38 279.627 193.4 279.627C193.38 279.608 193.361 279.608 193.342 279.608ZM193.995 280.184C193.976 280.165 193.976 280.165 193.956 280.146C193.956 280.165 193.976 280.165 193.995 280.184ZM203.403 270.373C203.403 270.334 203.403 270.277 203.403 270.238C203.384 270.296 203.384 270.334 203.403 270.373ZM203.307 273.445C203.307 273.426 203.307 273.406 203.307 273.406C203.307 273.426 203.307 273.426 203.307 273.445ZM203.23 269.24C203.23 269.259 203.23 269.278 203.249 269.278C203.249 269.298 203.268 269.317 203.268 269.336C203.268 269.355 203.288 269.374 203.288 269.394C203.288 269.432 203.307 269.451 203.307 269.49C203.307 269.509 203.307 269.528 203.326 269.547C203.345 269.624 203.364 269.682 203.364 269.758V269.778C203.384 269.835 203.384 269.893 203.403 269.95C203.345 269.624 203.268 269.317 203.172 269.029C203.192 269.086 203.211 269.163 203.23 269.24ZM203.422 270.162C203.422 270.104 203.403 270.046 203.403 269.989C203.422 270.046 203.422 270.104 203.422 270.162ZM194.609 280.645C194.571 280.626 194.552 280.606 194.513 280.587C194.532 280.606 194.571 280.626 194.609 280.645ZM203.019 268.606C203.076 268.722 203.115 268.856 203.153 268.99C203.096 268.837 203.057 268.683 203 268.549C203.019 268.568 203.019 268.587 203.019 268.606ZM194.705 280.722C194.667 280.702 194.628 280.683 194.609 280.645C194.648 280.683 194.667 280.702 194.705 280.722ZM203.019 268.606C203.019 268.587 203 268.587 203 268.568C203 268.568 203.019 268.587 203.019 268.606ZM283.851 253.112C283.947 253.15 284.062 253.189 284.177 253.266C284.062 253.189 283.947 253.131 283.851 253.112ZM289.496 252.171C289.438 252.19 289.4 252.229 289.342 252.248C289.4 252.21 289.457 252.19 289.496 252.171ZM289.784 252.018C289.88 251.96 289.956 251.902 290.033 251.845C289.956 251.902 289.86 251.96 289.784 252.018ZM203.979 281.125C203.979 281.048 203.979 280.99 203.979 280.933C203.979 280.99 203.979 281.067 203.979 281.125ZM283.851 255.262C283.832 255.243 283.832 255.205 283.812 255.166C283.812 255.205 283.832 255.243 283.851 255.262ZM283.716 254.994C283.736 255.032 283.736 255.051 283.755 255.07C283.736 255.032 283.736 255.013 283.716 254.994ZM288.824 252.459C288.728 252.498 288.651 252.517 288.555 252.555C288.632 252.517 288.728 252.478 288.824 252.459ZM217.016 208.088C216.996 208.126 216.977 208.146 216.977 208.184C216.977 208.165 216.996 208.126 217.016 208.088ZM227.307 213.502C227.076 213.541 226.846 213.598 226.616 213.637C226.635 213.637 226.654 213.637 226.673 213.618C226.884 213.598 227.096 213.56 227.307 213.502ZM226.02 213.234C226.02 213.253 226.001 213.253 226.001 213.272C226.001 213.272 226.001 213.291 225.982 213.291C226.001 213.253 226.02 213.253 226.02 213.234ZM181.112 294.987C181.131 295.026 181.169 295.045 181.188 295.083C181.169 295.064 181.131 295.026 181.112 294.987ZM216.324 209.835C216.286 209.931 216.267 210.027 216.228 210.104C216.267 210.008 216.286 209.912 216.324 209.835ZM283.524 254.533C283.544 254.59 283.582 254.648 283.601 254.725C283.563 254.648 283.544 254.59 283.524 254.533ZM217.304 207.531C217.284 207.55 217.284 207.57 217.265 207.608C217.265 207.57 217.284 207.55 217.304 207.531ZM290.609 255.685C290.59 255.704 290.571 255.742 290.571 255.781C290.571 255.742 290.59 255.723 290.609 255.685ZM283.275 253.63C283.275 253.592 283.256 253.534 283.256 253.496C283.256 253.554 283.256 253.592 283.275 253.63ZM290.993 257.106C290.916 257.202 290.84 257.259 290.763 257.259C290.84 257.24 290.916 257.202 290.993 257.106ZM291.07 255.339H291.051C291.051 255.358 291.051 255.339 291.07 255.339ZM290.801 255.474C290.782 255.493 290.763 255.493 290.763 255.512C290.782 255.493 290.801 255.474 290.801 255.474ZM181.112 294.987C181.073 294.93 181.035 294.891 180.996 294.834C181.035 294.891 181.073 294.949 181.112 294.987ZM283.352 253.995C283.332 253.938 283.332 253.899 283.313 253.842C283.313 253.899 283.332 253.938 283.352 253.995ZM286.212 254.187C286.155 254.725 286.232 255.339 286.308 255.781C286.232 255.358 286.155 254.725 286.212 254.187ZM286.404 256.203C286.385 256.165 286.385 256.126 286.366 256.069C286.385 256.126 286.404 256.165 286.404 256.203ZM289.188 252.306C289.092 252.344 288.977 252.382 288.862 252.44C288.977 252.402 289.073 252.344 289.188 252.306ZM203.998 282.258C203.998 282.296 203.998 282.315 204.017 282.354C204.017 282.315 204.017 282.277 203.998 282.258ZM204.056 282.622C204.036 282.526 204.036 282.43 204.017 282.354C204.017 282.43 204.036 282.526 204.056 282.622ZM203.979 281.989C203.979 281.95 203.979 281.931 203.979 281.893C203.979 281.931 203.979 281.97 203.979 281.989ZM203.979 281.989C203.979 282.085 203.998 282.162 203.998 282.258C203.998 282.162 203.998 282.085 203.979 281.989ZM181.246 295.141C181.361 295.256 181.476 295.371 181.611 295.467C181.476 295.371 181.342 295.256 181.246 295.141ZM204.132 283.006C204.113 282.891 204.094 282.795 204.075 282.68C204.075 282.795 204.094 282.91 204.132 283.006ZM180.996 294.834C180.977 294.814 180.977 294.795 180.958 294.776C180.977 294.795 180.996 294.814 180.996 294.834ZM181.496 292.549C181.496 292.568 181.476 292.587 181.476 292.606C181.496 292.587 181.496 292.568 181.496 292.549ZM203.979 280.414C203.979 280.318 203.96 280.222 203.96 280.126C203.96 280.222 203.96 280.318 203.979 280.414ZM180.785 294.334C180.785 294.334 180.824 294.258 180.862 294.123C180.804 294.277 180.785 294.334 180.785 294.334ZM180.862 294.123C180.881 294.066 180.9 294.008 180.939 293.931C180.92 294.027 180.881 294.085 180.862 294.123ZM180.862 294.565C180.824 294.488 180.804 294.43 180.785 294.354C180.804 294.411 180.824 294.488 180.862 294.565ZM180.958 294.776C180.939 294.718 180.9 294.68 180.881 294.622C180.92 294.68 180.939 294.718 180.958 294.776ZM181.38 292.856C181.38 292.837 181.4 292.818 181.419 292.779C181.4 292.798 181.4 292.837 181.38 292.856ZM181.284 293.106C181.246 293.182 181.227 293.24 181.208 293.317C181.227 293.24 181.246 293.163 181.284 293.106ZM181.208 293.298C181.208 293.298 181.208 293.317 181.188 293.317C181.188 293.317 181.188 293.317 181.208 293.298ZM286.884 253.112C287.307 252.958 287.864 252.786 288.401 252.613C287.844 252.786 287.307 252.958 286.884 253.112C286.462 253.266 286.27 253.707 286.212 254.187C286.27 253.688 286.462 253.266 286.884 253.112ZM186.065 296.408H186.084C186.084 296.408 186.084 296.408 186.065 296.408ZM182.744 289.458V289.438C182.744 289.438 182.744 289.438 182.744 289.458ZM189.176 293.259C189.156 293.125 189.118 292.971 189.099 292.837C189.137 292.971 189.156 293.106 189.176 293.259ZM182.974 288.882V288.862C182.974 288.862 182.974 288.862 182.974 288.882ZM195.953 361.918C195.972 361.918 195.972 361.918 195.992 361.899C195.992 361.899 195.972 361.899 195.953 361.918ZM193.246 360.402C193.246 360.555 193.284 360.709 193.38 360.862C193.304 360.709 193.246 360.555 193.246 360.402ZM195.608 361.938H195.588C195.473 361.938 195.339 361.918 195.204 361.88C195.339 361.899 195.454 361.918 195.588 361.938C195.608 361.938 195.608 361.938 195.608 361.938ZM183.896 286.366C183.934 286.27 183.972 286.155 184.011 286.059C183.972 286.155 183.934 286.251 183.896 286.366ZM184.625 284.504C184.529 284.715 184.433 284.965 184.337 285.195C184.433 284.965 184.529 284.734 184.625 284.504ZM185.374 283.141C185.412 283.122 185.566 283.045 185.796 282.93C185.566 283.045 185.432 283.122 185.374 283.141C185.336 283.16 185.259 283.237 185.201 283.352C185.278 283.237 185.336 283.16 185.374 283.141ZM184.894 283.909C184.952 283.774 185.028 283.64 185.086 283.544C185.028 283.64 184.971 283.755 184.894 283.909ZM185.201 283.333C185.163 283.39 185.124 283.448 185.086 283.525C185.124 283.467 185.163 283.39 185.201 283.333ZM202.827 268.165C202.808 268.107 202.769 268.069 202.75 268.011C202.769 268.05 202.788 268.107 202.827 268.165ZM183.281 288.114C183.281 288.114 183.281 288.133 183.262 288.133C183.262 288.133 183.262 288.114 183.281 288.114ZM183.339 287.922C183.339 287.902 183.339 287.902 183.358 287.883C183.358 287.902 183.358 287.902 183.339 287.922ZM183.166 288.363C183.166 288.344 183.185 288.325 183.185 288.325C183.185 288.344 183.185 288.344 183.166 288.363ZM183.569 287.326V287.307C183.569 287.307 183.569 287.307 183.569 287.326ZM183.492 287.538C183.492 287.557 183.492 287.557 183.473 287.576C183.492 287.557 183.492 287.538 183.492 287.538ZM203.288 292.011C203.288 292.069 203.307 292.146 203.307 292.203C203.307 292.146 203.288 292.088 203.288 292.011ZM203.364 292.664C203.364 292.645 203.364 292.645 203.364 292.626C203.364 292.626 203.364 292.645 203.364 292.664ZM203.249 291.781C203.249 291.819 203.268 291.858 203.268 291.915C203.268 291.877 203.268 291.819 203.249 291.781ZM203.499 293.643C203.499 293.624 203.499 293.605 203.499 293.586C203.48 293.586 203.48 293.624 203.499 293.643ZM203.384 292.76C203.384 292.798 203.403 292.856 203.403 292.894C203.384 292.856 203.384 292.798 203.384 292.76ZM290.436 251.518L391.006 312.056L227.499 402.526L51.3965 296.523L110.686 263.71L110.552 271.39L115.774 274.558L187.87 234.661L188.12 220.875L198.372 215.211V236.677L217.553 247.909L237.041 236.83V219.397L282.334 246.661C281.086 246.968 279.646 247.678 279.262 249.272C278.532 252.248 278.398 252.459 278.936 253.803C279.473 255.147 279.32 256.357 280.644 256.395C281.086 257.24 281.508 257.95 281.681 258.373C281.796 258.622 282.18 258.891 282.737 259.141L282.718 260.158L282.699 261.234C282.699 261.234 280.606 259.525 277.457 261.483C276.939 261.829 274.212 261.694 273.579 269.029C272.945 276.363 271.544 294.718 271.544 294.718L272.12 294.93C271.716 296.005 271.025 297.963 271.198 299.077C271.332 299.883 272.427 300.92 273.348 301.554L273.195 297.042L274.654 337.822V337.803C274.443 339.358 274.174 341.374 274.212 341.586C274.27 341.912 275.384 342.411 277.246 342.104C279.108 341.816 281.566 337.746 281.912 336.824C282.161 336.152 279.934 336.075 278.705 336.075C279.051 330.699 280.491 302.13 281.028 302.763C281.624 303.454 283.966 341.221 284.081 343.064C283.966 344.024 283.64 346.75 284.043 346.942C284.504 347.154 291.588 348.018 293.758 345.522C295.928 343.026 288.363 342.834 288.363 342.834C288.363 342.834 288.248 342.718 288.094 342.565V342.68L290.993 298.174C290.993 298.174 291.051 293.758 291.089 288.152C291.953 288.747 293.124 289.054 294.603 288.574C297.732 287.538 302.225 280.376 303.742 277.803L313.515 272.389L310.712 270.699L307.928 269.029L306.257 268.03L295.16 274.174L299.441 276.747L299.019 276.498L294.987 280.28C295.755 267.205 290.763 264.901 290.59 264.824L290.552 264.862C289.707 263.307 287.403 262.482 287.403 262.482C287.403 262.482 287.23 261.771 287.057 260.984C287 260.734 286.961 260.485 286.904 260.235C288.9 260.504 290.801 260.485 291.339 259.909C291.704 259.506 291.742 258.488 291.627 257.298C291.761 257.317 291.896 257.278 292.049 256.99C292.491 256.203 292.088 255.397 292.088 255.397C292.088 255.397 291.723 255.301 291.339 255.339C291.032 253.669 290.609 252.133 290.436 251.518ZM134.532 264.171L144.689 270.277L178.923 251.326L178.942 249.906L170.014 244.53L135.78 263.48L134.532 264.171ZM234.929 263L199.601 241.726L127.544 281.643L127.505 284.638L162.795 305.893L181.611 295.486C181.822 295.64 182.072 295.774 182.34 295.89C181.572 297.771 180.939 299.192 180.651 299.48C179.729 300.44 181.63 313.458 181.63 313.458C181.63 313.458 181.304 320.216 182.763 321.406C182.763 321.406 183.032 321.483 182.955 320.677C182.955 320.677 183.684 322.674 183.838 321.157C183.838 321.157 184.971 322.578 184.798 321.176C184.798 321.176 186.027 322.808 186.334 321.886C186.641 320.965 185.182 320.043 185.105 318.2C185.105 318.2 187.121 319.026 187.236 317.778C187.236 317.778 184.952 316.318 184.76 315.838C184.568 315.378 184.011 315.531 183.876 313.419C183.742 311.307 185.662 309.157 185.508 303.166C185.508 303.166 185.259 300.229 185.355 299.422C185.393 299.058 185.892 297.771 186.545 296.408C187.179 296.37 187.582 296.331 187.582 296.331C187.563 295.87 188.388 293.797 188.792 292.818C188.868 292.76 188.945 292.702 189.022 292.664C189.022 292.664 189.08 292.894 189.195 293.259C189.752 296.235 189.483 298.654 189.387 300.67C189.387 300.805 189.368 300.939 189.368 301.074C189.368 301.208 189.348 301.342 189.348 301.458C189.348 301.63 189.348 301.784 189.348 301.957C189.387 304.414 188.043 309.579 188.043 309.579C188.043 309.579 188.292 309.752 188.715 309.982C188.427 313.669 187.928 318.968 187.256 322.501C187.236 322.558 187.236 322.616 187.217 322.674C187.198 322.75 187.198 322.808 187.179 322.885C187.16 322.962 187.14 323.058 187.121 323.134C187.102 323.211 187.083 323.288 187.064 323.365C187.044 323.422 187.044 323.461 187.025 323.518C187.006 323.614 186.987 323.71 186.948 323.806C186.929 323.845 186.929 323.902 186.91 323.941C186.891 324.037 186.852 324.133 186.833 324.229C186.833 324.267 186.814 324.286 186.814 324.325C186.795 324.421 186.776 324.498 186.737 324.574C186.737 324.594 186.718 324.613 186.718 324.651C186.699 324.747 186.66 324.824 186.641 324.92C186.641 324.939 186.622 324.958 186.622 324.978C186.584 325.074 186.564 325.15 186.526 325.227C186.526 325.246 186.507 325.266 186.507 325.285C186.468 325.362 186.449 325.438 186.411 325.515C186.411 325.534 186.392 325.534 186.392 325.554C186.353 325.63 186.334 325.688 186.296 325.765C186.296 325.765 186.411 325.861 186.622 325.995C186.603 326.053 186.584 326.091 186.545 326.149C186.545 326.149 187.39 326.821 188.792 327.416C188.907 327.474 189.022 327.512 189.137 327.57C189.252 327.627 189.387 327.666 189.502 327.704C189.617 327.742 189.752 327.8 189.886 327.838C190.02 327.877 190.155 327.915 190.289 327.954C190.558 328.03 190.846 328.107 191.134 328.165C191.345 328.203 191.537 328.242 191.748 328.28C191.729 328.28 191.71 328.28 191.691 328.261C191.94 329.586 192.094 330.43 192.094 330.43C192.094 330.43 192.113 330.603 192.132 330.872C191.806 331.698 191.153 332.754 189.886 333.637C187.39 335.403 185.182 336.882 183.627 340.472C182.091 344.062 178.251 346.578 177.137 346.942C176.984 347 176.772 347.077 176.542 347.173C176.561 347.192 176.561 347.23 176.58 347.25C176.446 347 176.388 346.846 176.388 346.846C174.468 346.558 172.932 349.707 172.952 350.763C172.971 351.819 173.95 352.818 175.16 354.507C176.388 356.197 175.966 360.786 179.633 361.803C183.3 362.821 183.704 361.842 184.491 359.922C184.952 358.789 183.972 357.963 183.128 356.85C183.108 356.811 183.089 356.792 183.051 356.754C183.032 356.734 183.012 356.696 182.993 356.677C182.974 356.638 182.955 356.619 182.936 356.581C182.916 356.562 182.897 356.523 182.878 356.504C182.859 356.485 182.84 356.446 182.82 356.408C182.801 356.37 182.782 356.35 182.763 356.312C182.744 356.293 182.724 356.254 182.705 356.235C182.667 356.178 182.648 356.12 182.609 356.082C182.59 356.062 182.59 356.043 182.571 356.005C182.552 355.966 182.532 355.909 182.494 355.87C182.475 355.851 182.475 355.813 182.456 355.794C182.436 355.755 182.417 355.717 182.398 355.678C182.379 355.659 182.379 355.621 182.36 355.602C182.34 355.563 182.34 355.544 182.321 355.506C182.302 355.467 182.283 355.41 182.283 355.371C182.283 355.352 182.264 355.314 182.264 355.294C182.244 355.237 182.225 355.198 182.225 355.141C182.225 355.122 182.225 355.122 182.225 355.102C182.187 354.968 182.168 354.814 182.148 354.661C182.148 354.642 182.148 354.622 182.148 354.603C182.148 354.546 182.129 354.488 182.129 354.45C182.129 354.411 182.129 354.392 182.129 354.354C182.129 354.296 182.129 354.238 182.129 354.181C182.129 354.162 182.129 354.123 182.129 354.104C182.129 354.008 182.129 353.931 182.148 353.835C182.187 353.432 182.187 353.086 182.187 352.741C182.187 352.434 182.168 352.165 182.148 351.934C182.072 351.09 181.88 350.552 181.707 350.206C181.668 350.13 181.63 350.053 181.592 349.995C181.572 349.957 181.553 349.918 181.534 349.899C181.457 349.803 181.419 349.746 181.419 349.746C181.38 349.746 181.361 349.746 181.323 349.746C181.707 348.651 188.408 343.582 190.769 340.952C190.539 343.294 190.52 345.829 190.75 346.52C191.134 347.691 193.073 355.755 192.766 357.272C192.766 357.272 193.169 359.634 192.9 360.306C192.881 360.363 192.843 360.459 192.804 360.555C192.132 360.901 190.923 362.11 191.921 366.162C191.921 366.162 192.171 366.565 194.129 367.294C196.088 368.024 198.795 371.384 199.832 371.307C200.868 371.211 204.036 371.634 205.016 369.637C205.995 367.64 203.748 367.352 202.347 365.97C202.308 365.931 202.27 365.893 202.251 365.874C202.001 365.624 201.732 365.298 201.444 364.952C201.329 364.818 201.214 364.683 201.099 364.549C201.099 364.549 201.099 364.549 201.08 364.53C200.964 364.395 200.849 364.242 200.734 364.107C200.657 364.011 200.58 363.915 200.504 363.819C200.235 363.493 199.985 363.166 199.736 362.84C199.736 362.84 199.736 362.84 199.736 362.821C199.678 362.744 199.62 362.686 199.563 362.61C199.563 362.61 199.563 362.61 199.544 362.59C198.987 361.918 198.488 361.342 198.123 361.074C198.084 361.054 198.065 361.035 198.027 361.016C197.988 360.997 197.969 360.978 197.931 360.958H197.912C197.892 360.939 197.873 360.939 197.854 360.939C197.835 360.939 197.796 360.92 197.777 360.92C197.739 360.92 197.681 360.92 197.643 360.92C197.624 360.92 197.624 360.92 197.604 360.92C197.566 360.92 197.547 360.939 197.508 360.939C197.508 360.939 197.489 360.939 197.489 360.958C197.451 360.978 197.412 360.978 197.393 360.997C197.393 360.997 197.393 360.997 197.374 360.997C197.355 361.016 197.336 361.016 197.316 361.035C197.316 361.016 197.316 360.997 197.316 360.978C197.355 360.382 197.355 349.784 197.355 349.784L197.316 336.805C197.316 336.805 197.355 335.691 197.412 334.232C197.988 333.79 198.756 332.946 199.793 331.352C200.772 329.835 201.598 326.706 202.289 323.307C202.289 323.307 202.289 323.307 202.308 323.307C202.539 323.25 202.769 323.192 202.98 323.134C203.537 322.981 204.075 322.789 204.516 322.578C204.689 322.501 204.862 322.405 205.016 322.309C205.4 322.078 205.688 321.829 205.841 321.541L204.728 308.523C205.707 307.774 206.072 307.179 206.052 307.179C205.976 307.179 205.054 303.666 204.708 302.398C204.67 302.245 204.612 301.995 204.555 301.65C204.555 301.611 204.536 301.573 204.536 301.534C204.516 301.381 204.478 301.208 204.459 301.035C206.955 303.819 209.931 307.237 209.912 307.717C209.892 308.542 212.888 311.922 212.888 311.922C212.888 311.922 214.558 314.437 215.057 314.322C215.556 314.206 214.769 312.901 214.769 312.901C214.769 312.901 215.595 313.784 216.171 313.938C216.747 314.091 215.48 312.286 215.48 312.286C215.48 312.286 216.977 313.17 217.496 313.208C218.014 313.246 216.9 311.883 216.9 311.883C218.34 312.344 219.128 311.998 218.148 311.557C217.169 311.134 214.116 307.774 214.116 307.774C216.747 308.293 217.054 306.68 216.497 306.814C215.94 306.968 212.523 306.027 212.523 306.027C212.523 306.027 208.971 300.901 208.644 299.326C208.376 298.04 204.574 292.971 203.134 291.109C203.134 291.109 203.134 291.128 203.134 291.147C203.134 291.109 203.134 291.09 203.134 291.09C205.668 290.149 206.801 287.614 206.801 287.614C206.801 287.614 204.67 285.675 204.075 283.026L234.833 266.014L234.929 263ZM203.499 293.758C203.499 293.797 203.499 293.816 203.518 293.854C203.518 293.816 203.518 293.778 203.499 293.758ZM204.401 300.44C204.44 300.651 204.459 300.843 204.497 301.035C204.478 300.843 204.44 300.651 204.401 300.44ZM203.537 294.008V294.027C203.537 294.027 203.537 294.027 203.537 294.008ZM201.329 323.518C201.444 323.499 201.56 323.48 201.675 323.442C201.54 323.48 201.425 323.499 201.329 323.518ZM203.864 296.504C203.864 296.542 203.883 296.581 203.883 296.638C203.883 296.6 203.864 296.542 203.864 296.504ZM203.998 297.502C204.017 297.579 204.017 297.675 204.036 297.752C204.017 297.675 203.998 297.598 203.998 297.502ZM203.172 291.166C203.192 291.243 203.192 291.378 203.211 291.55C203.211 291.378 203.192 291.262 203.172 291.166ZM203.595 294.43C203.595 294.45 203.595 294.469 203.595 294.507C203.595 294.488 203.595 294.469 203.595 294.43ZM203.652 294.872C203.672 294.987 203.691 295.102 203.691 295.218C203.672 295.102 203.672 294.987 203.652 294.872ZM203.787 295.928C203.787 295.89 203.787 295.87 203.768 295.832C203.768 295.851 203.787 295.89 203.787 295.928ZM203.729 295.448C203.729 295.39 203.71 295.314 203.71 295.256C203.71 295.314 203.71 295.39 203.729 295.448ZM203.748 295.678C203.748 295.64 203.729 295.602 203.729 295.563C203.748 295.602 203.748 295.64 203.748 295.678ZM195.569 281.221C195.531 281.202 195.473 281.182 195.435 281.144C195.435 281.144 195.416 281.144 195.416 281.125C195.473 281.163 195.531 281.182 195.588 281.221C195.569 281.24 195.569 281.221 195.569 281.221ZM195.377 281.125C195.339 281.106 195.281 281.067 195.243 281.048C195.243 281.048 195.224 281.048 195.224 281.029C195.281 281.086 195.339 281.106 195.377 281.125C195.396 281.144 195.396 281.125 195.377 281.125ZM195.608 281.259C195.588 281.259 195.588 281.24 195.569 281.24C195.588 281.24 195.588 281.24 195.608 281.259ZM195.742 281.317C195.704 281.298 195.665 281.278 195.608 281.259C195.608 281.259 195.588 281.259 195.588 281.24C195.646 281.278 195.704 281.298 195.761 281.317C195.761 281.336 195.761 281.317 195.742 281.317ZM194.859 280.818C194.878 280.837 194.878 280.837 194.878 280.837C194.878 280.837 194.878 280.837 194.897 280.837C194.878 280.837 194.878 280.818 194.859 280.818ZM195.204 281.029C195.166 281.01 195.108 280.971 195.07 280.952C195.07 280.952 195.07 280.952 195.051 280.952C195.108 280.99 195.166 281.029 195.224 281.048C195.204 281.029 195.204 281.029 195.204 281.029ZM195.032 280.933C194.993 280.914 194.936 280.875 194.897 280.856C194.897 280.856 194.897 280.856 194.878 280.856C194.936 280.875 194.993 280.894 195.032 280.933ZM196.337 281.566C196.356 281.566 196.356 281.586 196.376 281.586C196.356 281.586 196.337 281.566 196.337 281.566ZM196.51 281.624C196.472 281.605 196.433 281.605 196.395 281.586C196.376 281.586 196.376 281.586 196.356 281.566C196.414 281.586 196.472 281.605 196.529 281.624H196.51ZM195.934 281.413C195.896 281.394 195.857 281.374 195.8 281.355C195.8 281.355 195.78 281.355 195.78 281.336C195.838 281.374 195.896 281.394 195.972 281.413C195.953 281.413 195.953 281.413 195.934 281.413ZM196.875 281.72C196.836 281.72 196.798 281.701 196.76 281.701C196.74 281.701 196.721 281.682 196.702 281.682C196.664 281.662 196.625 281.662 196.587 281.643C196.568 281.643 196.568 281.643 196.548 281.643C196.664 281.682 196.798 281.701 196.913 281.739C196.894 281.72 196.894 281.72 196.875 281.72ZM196.318 281.566C196.28 281.547 196.241 281.528 196.203 281.528C196.184 281.528 196.184 281.528 196.164 281.509C196.222 281.528 196.28 281.566 196.356 281.586C196.337 281.566 196.337 281.566 196.318 281.566ZM196.126 281.49C196.088 281.47 196.049 281.451 196.011 281.432C196.011 281.432 195.992 281.432 195.992 281.413C196.049 281.432 196.107 281.47 196.164 281.49C196.145 281.49 196.145 281.49 196.126 281.49ZM194.878 280.818C194.859 280.818 194.859 280.818 194.878 280.818C194.82 280.779 194.763 280.741 194.724 280.722C194.763 280.76 194.82 280.798 194.878 280.818ZM194.148 280.318C194.168 280.338 194.187 280.357 194.206 280.376C194.206 280.357 194.168 280.338 194.148 280.318ZM197.988 277.899C197.969 277.899 197.969 277.899 197.95 277.918C197.969 277.918 197.969 277.918 197.988 277.899ZM194.091 280.261C194.11 280.28 194.129 280.299 194.148 280.299C194.11 280.28 194.11 280.28 194.091 280.261ZM194.052 280.242C194.033 280.222 194.014 280.222 194.014 280.203C194.033 280.222 194.052 280.222 194.052 280.242ZM193.899 280.088C193.918 280.107 193.918 280.107 193.937 280.126C193.918 280.107 193.899 280.107 193.899 280.088ZM198.353 280.99C198.353 281.01 198.353 281.01 198.334 281.029C198.334 281.029 198.334 281.01 198.353 280.99ZM198.315 279.339C198.315 279.358 198.334 279.397 198.334 279.416C198.315 279.397 198.315 279.378 198.315 279.339ZM198.123 278.533C198.123 278.571 198.142 278.59 198.142 278.629C198.142 278.61 198.123 278.571 198.123 278.533ZM198.411 280.011C198.411 280.03 198.411 280.05 198.411 280.069C198.411 280.069 198.411 280.03 198.411 280.011ZM196.702 281.682C196.721 281.682 196.721 281.682 196.74 281.701C196.74 281.682 196.721 281.682 196.702 281.682ZM191.268 269.048C191.268 269.086 191.268 269.106 191.268 269.144C191.268 269.106 191.268 269.067 191.268 269.048ZM202.212 277.035H202.232C202.232 277.035 202.232 277.035 202.212 277.035ZM191.326 269.586C191.326 269.566 191.326 269.547 191.307 269.547C191.326 269.566 191.326 269.566 191.326 269.586ZM191.403 269.797V269.778C191.384 269.778 191.384 269.797 191.403 269.797ZM191.422 268.203C191.384 268.28 191.364 268.357 191.326 268.434C191.364 268.357 191.403 268.28 191.422 268.203ZM202.193 277.035H202.174C202.174 277.035 202.174 277.035 202.193 277.035ZM191.326 268.53C191.307 268.587 191.307 268.626 191.288 268.683C191.288 268.626 191.307 268.568 191.326 268.53ZM197.451 281.758C197.432 281.758 197.432 281.758 197.412 281.758C197.412 281.758 197.432 281.758 197.451 281.758ZM197.854 281.643C197.816 281.662 197.796 281.682 197.758 281.682C197.739 281.682 197.739 281.701 197.72 281.701C197.681 281.72 197.643 281.72 197.624 281.72H197.604C197.681 281.72 197.777 281.682 197.854 281.643ZM197.585 281.739H197.566C197.528 281.739 197.489 281.758 197.451 281.758C197.432 281.758 197.412 281.758 197.393 281.758C197.355 281.758 197.316 281.758 197.278 281.758H197.259C197.374 281.758 197.489 281.758 197.585 281.739ZM197.72 281.701C197.739 281.701 197.739 281.701 197.758 281.682C197.739 281.701 197.72 281.701 197.72 281.701ZM197.24 281.758C197.201 281.758 197.163 281.758 197.124 281.758C197.105 281.758 197.086 281.758 197.067 281.758C197.028 281.758 196.99 281.739 196.952 281.739H196.932C197.048 281.758 197.163 281.778 197.278 281.778C197.259 281.758 197.24 281.758 197.24 281.758ZM197.336 277.4C197.336 277.4 197.316 277.4 197.316 277.381C197.316 277.4 197.316 277.4 197.336 277.4ZM198.161 277.861C198.18 277.861 198.18 277.861 198.2 277.842C198.18 277.861 198.161 277.861 198.161 277.861ZM198.008 278.13C198.046 278.264 198.084 278.398 198.123 278.533C198.123 278.571 198.142 278.59 198.142 278.629C198.18 278.763 198.2 278.878 198.238 278.994C198.257 279.109 198.296 279.224 198.315 279.339C198.315 279.358 198.334 279.397 198.334 279.416C198.353 279.512 198.372 279.627 198.392 279.723C198.411 279.819 198.411 279.915 198.43 279.992C198.43 280.011 198.43 280.03 198.43 280.069C198.43 280.146 198.449 280.242 198.449 280.318C198.449 280.318 198.449 280.318 198.449 280.338C198.449 280.414 198.449 280.491 198.449 280.549C198.449 280.568 198.449 280.587 198.449 280.606C198.449 280.664 198.43 280.741 198.43 280.798V280.818C198.411 280.875 198.411 280.933 198.392 280.99C198.392 281.01 198.392 281.029 198.372 281.029C198.353 281.086 198.334 281.125 198.315 281.163V281.182C198.296 281.221 198.276 281.259 198.257 281.298C198.257 281.317 198.238 281.317 198.238 281.336C198.219 281.374 198.18 281.394 198.161 281.432L198.142 281.451C198.123 281.47 198.084 281.509 198.065 281.528C198.046 281.528 198.046 281.547 198.027 281.547C197.988 281.566 197.969 281.586 197.931 281.605C197.931 281.605 197.931 281.605 197.912 281.605C198.468 281.317 198.68 280.338 198.008 278.13ZM203.46 270.392C203.46 270.334 203.46 270.277 203.441 270.238C203.441 270.296 203.441 270.334 203.46 270.392ZM197.988 281.547L197.969 281.566C197.988 281.566 197.988 281.547 197.988 281.547ZM198.046 277.899H198.065C198.065 277.88 198.046 277.88 198.046 277.899Z" fill="#D9E3EE"/>
        <path d="M227.499 402.527L51.3966 296.523L55.467 294.258L50.8206 296.523L50.6094 307.832L226.731 413.835L390.238 323.384L390.43 312.383L227.499 402.527Z" fill="#0034CC"/>
        <path d="M229.803 40.4342L242.341 47.9798C242.917 48.3254 243.262 48.959 243.262 49.631L242.974 64.2422C242.955 65.7014 241.361 66.5846 240.113 65.8358L227.595 58.2902C227.019 57.9446 226.673 57.311 226.673 56.639L226.942 42.0278C226.961 40.5686 228.555 39.6854 229.803 40.4342ZM206.84 104.85V149.298L168.344 171.513V127.065L206.84 104.85ZM202.27 112.741L172.894 129.695V163.621L202.27 146.668V112.741ZM181.131 137.49L189.176 138.853C189.233 138.873 189.31 138.834 189.329 138.777L195.109 129.599C195.205 129.465 195.032 129.292 194.897 129.369L181.073 137.183C180.939 137.279 180.977 137.471 181.131 137.49ZM180.805 149.106V138.393L179.23 139.257V151.813L194.36 143.596V141.753L180.805 149.106Z" fill="#E8666A"/>
        <path d="M184.396 185.567L183.512 233.739L120.268 268.741L121.151 220.568L184.396 185.567ZM188.696 308.351C188.696 308.447 188.696 308.543 188.716 308.639C188.696 308.523 188.696 308.447 188.696 308.351ZM189.004 310.751C188.984 310.751 188.946 310.731 188.927 310.731C188.946 310.751 188.984 310.751 189.004 310.751ZM188.812 309.925C188.812 309.906 188.812 309.887 188.812 309.887C188.792 309.887 188.792 309.906 188.812 309.925ZM188.908 310.655V310.635C188.908 310.635 188.908 310.635 188.908 310.655ZM198.412 311.307C194.149 312.287 190.616 310.943 188.984 310.117C188.581 315.282 187.775 323.883 186.604 326.111C186.604 326.111 192.191 330.488 198.162 327.051L198.143 324.018C198.143 324.018 204.978 323.327 205.9 321.541L204.786 308.523C203.615 309.426 201.599 310.578 198.412 311.307ZM198.162 327.071L198.143 325.189C196.3 325.669 191.077 326.475 187.506 322.885C187.237 324.325 186.93 325.477 186.604 326.111C186.604 326.111 192.191 330.488 198.162 327.071ZM197.912 321.176L198.143 324.018C198.143 324.018 204.978 323.327 205.9 321.541L205.669 318.872C205.669 318.872 202.328 321.695 197.912 321.176ZM188.773 292.818C188.85 292.76 188.927 292.703 189.004 292.664C189.004 292.664 189.061 292.895 189.176 293.259C189.119 292.952 189.061 292.645 188.984 292.319C188.984 292.319 188.908 292.511 188.773 292.818ZM192.172 311.269C192.287 311.288 192.383 311.327 192.498 311.346C192.383 311.327 192.287 311.307 192.172 311.269ZM193.784 311.557C193.669 311.538 193.554 311.538 193.458 311.519C193.573 311.538 193.669 311.538 193.784 311.557ZM194.84 311.634C194.956 311.634 195.071 311.634 195.186 311.634C195.09 311.653 194.975 311.653 194.84 311.634ZM193.9 311.576C194.168 311.615 194.456 311.634 194.744 311.634C194.456 311.615 194.168 311.595 193.9 311.576ZM190.616 310.808C190.54 310.789 190.482 310.751 190.405 310.731C190.482 310.77 190.559 310.789 190.616 310.808ZM191.423 311.077C191.5 311.096 191.596 311.135 191.692 311.154C191.596 311.135 191.519 311.096 191.423 311.077ZM189.176 310.213C189.157 310.194 189.138 310.194 189.119 310.175C189.138 310.194 189.157 310.213 189.176 310.213ZM189.714 310.463C189.676 310.443 189.618 310.424 189.58 310.405C189.637 310.424 189.676 310.443 189.714 310.463ZM189.829 310.501C189.887 310.52 189.925 310.539 189.983 310.559C189.925 310.559 189.868 310.52 189.829 310.501ZM191.02 310.962C191.116 311 191.231 311.019 191.327 311.058C191.231 311.019 191.135 310.981 191.02 310.962ZM196.204 311.634C196.069 311.634 195.935 311.653 195.8 311.653C195.954 311.634 196.088 311.634 196.204 311.634ZM190.732 310.847C190.808 310.885 190.904 310.904 190.981 310.923C190.885 310.904 190.808 310.885 190.732 310.847ZM203.096 309.599C203.077 309.618 203.058 309.618 203.039 309.637C203.077 309.618 203.096 309.618 203.096 309.599ZM202.271 310.021C202.309 310.002 202.367 309.983 202.405 309.963C202.348 309.983 202.309 310.002 202.271 310.021ZM201.599 310.309C201.541 310.328 201.484 310.367 201.426 310.386C201.484 310.347 201.541 310.328 201.599 310.309ZM199.141 311.135C199.084 311.154 199.026 311.173 198.968 311.173C199.026 311.154 199.084 311.135 199.141 311.135ZM196.338 311.615C196.472 311.615 196.588 311.595 196.722 311.576C196.607 311.595 196.472 311.615 196.338 311.615ZM197.912 311.403C198.066 311.365 198.239 311.346 198.392 311.307C198.239 311.346 198.085 311.384 197.912 311.403ZM200.984 310.559C201.042 310.539 201.119 310.52 201.176 310.482C201.119 310.501 201.042 310.52 200.984 310.559ZM200.524 310.712C200.6 310.693 200.658 310.674 200.716 310.635C200.658 310.674 200.581 310.693 200.524 310.712ZM182.476 355.525C182.38 355.256 182.303 354.949 182.245 354.642C181.016 354.335 179.98 354.719 179.308 355.179C179.365 355.333 179.442 355.487 179.519 355.64C180.594 355.103 181.784 355.314 182.476 355.525ZM178.52 351.551C178.54 351.743 178.559 351.935 178.578 352.127C180.191 351.416 181.976 352.299 181.976 352.299C181.976 352.299 182.092 352.299 182.245 352.319C182.226 352.031 182.207 351.781 182.168 351.551C182.015 351.493 181.842 351.416 181.631 351.339C180.383 350.859 179.269 351.128 178.52 351.551ZM198.911 365.567C198.911 365.567 199.18 365.739 199.544 365.931C200.101 364.837 201.004 364.837 201.503 364.914C201.272 364.645 201.042 364.357 200.812 364.05C200.101 364.184 199.276 364.933 198.796 365.413L198.911 365.567ZM197.202 363.666L197.932 364.472C197.989 364.376 198.047 364.261 198.104 364.127C198.565 363.051 199.314 362.859 199.852 362.879C199.717 362.706 199.583 362.552 199.448 362.379L199.199 362.13C198.412 362.418 197.548 363.282 197.202 363.666ZM189.368 300.671C192.517 297.176 201.368 296.331 203.807 296.178C203.461 293.547 203.154 291.09 203.154 291.09L202.693 287.73C197.106 286.213 188.965 292.338 188.965 292.338C189.81 295.736 189.484 298.424 189.368 300.671ZM198.162 310.923C193.9 311.903 190.367 310.559 188.735 309.733C188.332 314.898 187.525 323.499 186.354 325.727C186.354 325.727 191.941 330.104 197.912 326.667L197.893 323.634C197.893 323.634 204.728 322.943 205.65 321.157L204.536 308.139C203.365 309.042 201.349 310.194 198.162 310.923ZM348.152 207.474V230.437L255.896 177.695V154.866L348.152 207.474ZM333.272 209.144L308.024 194.379L260.485 166.559V177.56L300.824 200.619L333.253 219.167V209.144H333.272ZM260.063 151.487L258.162 150.392C257.548 150.027 256.76 150.488 256.76 151.199V153.387C256.76 153.714 256.933 154.021 257.221 154.194L259.122 155.288C259.736 155.653 260.524 155.192 260.524 154.482V152.293C260.524 151.947 260.351 151.64 260.063 151.487ZM314.86 152.543V170.053L293.202 158.283V140.869L293.336 140.389L305.605 138.104C305.701 138.085 305.797 138.123 305.855 138.219C305.855 138.219 314.994 152.504 314.86 152.543ZM314.034 152.274L294.258 141.099C294.047 140.984 293.816 141.215 293.951 141.426L302.207 154.559C302.264 154.635 302.341 154.674 302.437 154.655L313.957 152.715C314.168 152.658 314.226 152.37 314.034 152.274ZM195.32 129.272V141.215L180.805 149.106V137.451C181.151 136.818 184.645 131.307 187.007 127.621L195.301 129.157L195.32 129.272ZM194.898 129.387L181.074 137.202C180.94 137.279 180.978 137.471 181.132 137.49L189.176 138.853C189.234 138.872 189.311 138.834 189.33 138.776L195.109 129.599C195.186 129.464 195.032 129.311 194.898 129.387ZM202.271 113.125V147.051L172.895 164.005V130.079L202.271 113.125ZM195.935 129.195L195.781 128.619L187.007 126.987C186.815 126.949 186.623 127.026 186.508 127.199C186.488 127.218 184.914 129.695 183.34 132.171C182.418 133.611 181.688 134.783 181.17 135.608C180.21 137.144 180.114 137.298 180.152 137.432V138.719L179.192 139.237V151.794L194.322 143.576V142.443L195.896 141.579V129.195H195.935ZM307.352 268.645L306.392 269.279L309.772 271.295L310.732 270.68L307.352 268.645Z" fill="white"/>
        <path d="M202.328 323.308C201.656 326.706 200.811 329.817 199.832 331.353C198.814 332.966 198.027 333.81 197.451 334.233C197.393 335.692 197.355 336.806 197.355 336.806L197.393 349.785C197.393 349.785 197.393 360.383 197.355 360.978C197.355 360.998 197.355 361.017 197.355 361.036C196.836 361.324 196.356 361.977 195.627 361.958C195.608 361.958 195.588 361.958 195.569 361.958C194.59 361.881 193.208 361.266 193.227 360.402C193.227 360.402 193.073 360.422 192.843 360.537C192.881 360.441 192.92 360.364 192.939 360.287C193.227 359.615 192.804 357.254 192.804 357.254C193.092 355.737 191.172 347.673 190.788 346.502C190.558 345.81 190.577 343.295 190.808 340.934C188.446 343.545 181.745 348.633 181.361 349.727C181.246 349.727 181.131 349.727 181.035 349.727C180.996 349.727 180.958 349.727 180.92 349.727C180.824 349.727 180.728 349.708 180.632 349.708C180.593 349.708 180.555 349.708 180.516 349.689C180.401 349.67 180.305 349.65 180.19 349.65C180.171 349.65 180.152 349.65 180.132 349.65C179.998 349.631 179.883 349.593 179.768 349.574C179.748 349.574 179.748 349.574 179.729 349.554C179.633 349.535 179.518 349.497 179.422 349.478C179.403 349.478 179.384 349.458 179.364 349.458C179.268 349.42 179.172 349.401 179.076 349.362H179.057C178.846 349.286 178.654 349.19 178.462 349.074C177.387 348.479 176.83 347.654 176.6 347.193C176.83 347.097 177.022 347.02 177.195 346.962C178.289 346.598 182.129 344.082 183.684 340.492C185.22 336.902 187.448 335.423 189.944 333.657C191.192 332.774 191.844 331.718 192.19 330.892C192.171 330.604 192.152 330.45 192.152 330.45C192.152 330.45 191.998 329.606 191.748 328.281C191.787 328.281 191.825 328.3 191.864 328.3C192.017 328.319 192.171 328.338 192.344 328.358C192.574 328.377 192.824 328.396 193.073 328.396C194.148 328.415 195.3 328.281 196.491 327.858C196.587 327.82 196.683 327.801 196.76 327.762C197.22 327.59 197.681 327.359 198.142 327.09L198.123 325.209L198.104 324.038C198.104 324.038 198.91 323.961 200.004 323.769C200.1 323.75 200.216 323.73 200.312 323.711C200.734 323.634 201.176 323.558 201.636 323.462C201.886 323.404 202.116 323.346 202.328 323.308ZM218.206 311.538C217.227 311.116 214.174 307.756 214.174 307.756C216.804 308.274 217.112 306.662 216.555 306.796C215.998 306.95 212.58 306.009 212.58 306.009C212.58 306.009 209.028 300.882 208.702 299.308C208.433 298.022 204.632 292.953 203.192 291.09C203.211 291.263 203.499 293.625 203.844 296.159C203.864 296.274 203.883 296.39 203.883 296.505C203.902 296.582 203.902 296.678 203.921 296.754C203.96 297.004 203.979 297.254 204.017 297.503C204.036 297.58 204.036 297.676 204.056 297.753C204.132 298.329 204.209 298.905 204.286 299.423C204.305 299.538 204.324 299.634 204.324 299.75C204.401 300.21 204.459 300.652 204.516 301.036C207.012 303.82 209.988 307.238 209.969 307.718C209.95 308.543 212.945 311.922 212.945 311.922C212.945 311.922 214.616 314.438 215.115 314.322C215.614 314.207 214.827 312.902 214.827 312.902C214.827 312.902 215.652 313.785 216.228 313.938C216.804 314.092 215.537 312.287 215.537 312.287C215.537 312.287 217.035 313.17 217.553 313.209C218.072 313.247 216.958 311.884 216.958 311.884C218.398 312.326 219.185 311.961 218.206 311.538ZM182.763 321.407C182.763 321.407 183.032 321.484 182.955 320.678C182.955 320.678 183.684 322.674 183.838 321.158C183.838 321.158 184.971 322.578 184.798 321.177C184.798 321.177 186.027 322.809 186.334 321.887C186.641 320.966 185.182 320.044 185.105 318.201C185.105 318.201 187.121 319.026 187.236 317.778C187.236 317.778 184.952 316.319 184.76 315.839C184.568 315.378 184.011 315.532 183.876 313.42C183.742 311.308 185.662 309.158 185.508 303.167C185.508 303.167 185.259 300.23 185.355 299.423C185.393 299.058 185.892 297.772 186.545 296.409C185.432 296.466 183.646 296.447 182.34 295.89C181.572 297.772 180.939 299.193 180.651 299.481C179.729 300.441 181.63 313.458 181.63 313.458C181.63 313.458 181.304 320.217 182.763 321.407ZM202.731 268.012C202.27 268.415 201.387 268.838 199.774 268.492C199.774 268.492 198.046 269.74 195.492 268.857C195.492 268.857 195.531 270.028 194.321 270.431C193.112 270.815 194.379 273.004 194.379 273.004C194.379 273.004 193.764 273.407 193.092 272.025C192.401 270.642 192.152 270.988 192.075 271.026C192.036 271.046 191.691 270.604 191.48 270.028C191.076 269.97 190.712 270.143 190.654 270.969C190.52 272.831 192.804 272.889 192.804 272.889C192.804 272.889 192.977 273.158 193.284 273.58C193.4 275.02 193.611 278.438 193.342 279.628C193.553 279.666 193.745 279.762 193.764 279.916C193.822 280.319 200.12 284.85 198.027 278.169C197.758 278.303 197.508 278.438 197.297 278.553C197.24 278.15 197.144 277.689 197.028 277.247C197.816 277.727 198.66 278.073 199.524 278.15C203 278.418 203.633 274.06 203.384 269.798C203.23 269.068 202.98 268.415 202.731 268.012ZM290.993 257.106C290.686 257.51 290.283 257.068 290.475 256.031C290.571 255.513 290.955 255.34 291.339 255.302C290.936 253.228 290.36 251.27 290.36 251.27C290.436 252.153 288.094 252.671 286.865 253.132C285.636 253.593 286.424 256.338 286.424 256.338L285.771 256.319V255.359C285.771 255.359 286.136 254.322 284.177 253.266C282.219 252.23 283.966 255.532 283.966 255.532C283.467 257.202 281.931 256.415 280.606 256.377C281.048 257.222 281.47 257.932 281.643 258.354C281.758 258.604 282.142 258.873 282.699 259.122L282.68 260.14L287.057 260.946C287 260.697 286.961 260.447 286.904 260.198C288.9 260.466 290.801 260.447 291.339 259.871C291.704 259.468 291.742 258.45 291.627 257.26C291.416 257.183 291.204 256.838 290.993 257.106ZM273.176 297.004C273.176 297.004 273.176 296.39 273.156 295.295L272.1 294.892C271.697 295.967 271.006 297.926 271.179 299.039C271.313 299.846 272.408 300.882 273.329 301.516L273.176 297.004Z" fill="#F6BF9B" stroke="#F6BF9B" stroke-miterlimit="10"/>
        <path d="M186.354 325.726C186.68 325.092 186.987 323.94 187.256 322.5C190.808 326.091 196.05 325.285 197.893 324.805L197.912 326.686C191.922 330.104 186.354 325.726 186.354 325.726ZM197.662 320.792L197.893 323.633C197.893 323.633 204.728 322.942 205.65 321.156L205.419 318.488C205.419 318.488 202.078 321.31 197.662 320.792ZM245.182 53.3741L244.914 67.9853C244.894 68.6573 245.259 69.2909 245.835 69.6365L258.354 77.1821C259.602 77.9309 261.195 77.0477 261.214 75.5885L261.502 60.9773C261.522 60.3053 261.157 59.6717 260.581 59.3261L248.043 51.7805C246.795 51.0317 245.202 51.9149 245.182 53.3741ZM116.773 219.627L115.774 274.558L187.87 234.661L188.869 179.729L116.773 219.627ZM183.512 233.739L120.267 268.741L121.15 220.568L184.395 185.566L183.512 233.739ZM144.709 268.856L178.942 249.905L178.923 251.326L144.69 270.277L134.533 264.171L135.781 263.48L144.709 268.856ZM195.589 361.937C196.568 362.014 197.086 360.843 197.835 360.901C198.584 360.939 201.003 364.548 202.405 365.95C203.806 367.352 206.053 367.64 205.074 369.617C204.094 371.614 200.926 371.192 199.89 371.288C198.853 371.384 196.165 368.024 194.187 367.275C192.229 366.545 191.979 366.142 191.979 366.142C190.654 360.747 193.246 360.401 193.246 360.401C193.246 361.265 194.629 361.88 195.589 361.937ZM181.496 349.726C181.496 349.726 182.475 350.629 182.226 353.816C181.976 356.984 185.355 357.963 184.568 359.902C183.781 361.841 183.378 362.801 179.71 361.784C176.043 360.766 176.466 356.177 175.237 354.488C174.008 352.798 173.029 351.8 173.029 350.744C173.029 349.688 174.546 346.539 176.466 346.827C176.466 346.827 177.483 349.764 181.496 349.726ZM194.13 280.299C194.11 280.28 194.091 280.26 194.072 280.26C194.11 280.28 194.11 280.28 194.13 280.299ZM194.226 280.376C194.206 280.356 194.187 280.337 194.168 280.318C194.168 280.337 194.206 280.356 194.226 280.376ZM193.957 280.145C193.976 280.165 193.976 280.164 193.995 280.184C193.976 280.164 193.957 280.165 193.957 280.145ZM193.88 280.068L193.861 280.049C193.861 280.049 193.861 280.068 193.88 280.068ZM193.938 280.126C193.918 280.107 193.918 280.107 193.899 280.088C193.899 280.107 193.918 280.107 193.938 280.126ZM181.496 292.549L162.834 302.878L127.544 281.643L199.621 241.726L234.949 263L203.96 280.126C203.73 276.939 202.386 276.977 202.078 277.035C203.307 275.518 203.538 272.619 203.365 269.758C203.307 269.489 203.25 269.24 203.173 269.009C203.365 269.585 203.499 270.277 203.461 270.929C203.403 272.389 204.402 269.048 203.71 267.185C207.262 265.265 205.17 260.12 205.17 260.12C205.17 260.12 204.018 255.723 199.928 257.854C195.838 260.004 197.47 263.096 197.47 263.096C195.013 261.732 193.784 264.459 193.784 264.459C193.784 264.459 192.747 263.998 191.634 265.342C190.52 266.686 191.422 268.184 191.422 268.184C191.134 268.779 191.25 269.451 191.461 269.988C191.058 269.931 190.693 270.104 190.635 270.929C190.501 272.792 192.786 272.849 192.786 272.849C192.786 272.849 192.958 273.118 193.266 273.54C193.381 274.98 193.592 278.398 193.323 279.589C192.958 279.512 192.517 279.55 192.517 279.55C192.517 279.55 185.758 282.949 185.394 283.141C185.029 283.313 183.781 286.616 183.608 287.23C183.474 287.633 182.302 290.59 181.496 292.549ZM194.61 280.645C194.648 280.664 194.686 280.683 194.706 280.721C194.667 280.702 194.648 280.683 194.61 280.645ZM193.803 280.011L193.822 280.03C193.822 280.011 193.822 280.011 193.803 280.011ZM197.01 277.208C197.413 277.457 197.835 277.668 198.277 277.822C198.066 277.88 197.95 277.918 197.95 277.918C197.97 277.995 197.989 278.053 198.027 278.129C197.758 278.264 197.509 278.398 197.298 278.513C197.202 278.11 197.106 277.649 197.01 277.208ZM194.514 280.587C194.552 280.606 194.571 280.625 194.61 280.645C194.571 280.625 194.533 280.606 194.514 280.587ZM198.008 278.129C199.582 283.141 196.414 281.854 194.725 280.721C196.414 281.854 199.563 283.16 198.008 278.129ZM202.904 268.337C202.885 268.299 202.866 268.241 202.846 268.203C202.866 268.241 202.885 268.28 202.904 268.337ZM202.827 268.165C202.808 268.107 202.77 268.068 202.75 268.011C202.77 268.049 202.789 268.107 202.827 268.165ZM203 268.549C203.058 268.683 203.115 268.836 203.154 268.99C203.115 268.836 203.058 268.702 203 268.549ZM193.438 279.627C193.458 279.627 193.477 279.646 193.496 279.646C193.477 279.646 193.458 279.646 193.438 279.627ZM193.342 279.608C193.362 279.608 193.381 279.627 193.4 279.627C193.381 279.608 193.362 279.608 193.342 279.608ZM193.726 279.876C193.726 279.857 193.707 279.838 193.707 279.819C193.726 279.838 193.726 279.857 193.726 279.876ZM193.688 279.8C193.688 279.781 193.669 279.781 193.65 279.761C193.688 279.781 193.688 279.781 193.688 279.8ZM193.515 279.665C193.534 279.685 193.573 279.684 193.592 279.704C193.573 279.684 193.554 279.665 193.515 279.665ZM209.528 200.312C209.912 197.547 211.045 194.859 212.562 192.478C214.674 189.156 217.477 186.353 220.242 183.589C218.974 187.947 222.507 192.113 223.717 196.51C224.062 197.739 224.197 199.006 224.216 200.273C223.102 201.137 221.931 201.944 220.914 202.846C220.856 202.904 220.798 202.961 220.741 203.019C219.954 203.729 219.262 204.516 218.629 205.361C218.514 205.534 218.379 205.707 218.264 205.88C218.264 205.88 218.264 205.899 218.245 205.899C218.13 206.072 218.014 206.244 217.918 206.398C217.918 206.417 217.899 206.417 217.899 206.437C217.803 206.609 217.707 206.763 217.611 206.936C217.592 206.955 217.592 206.974 217.573 206.993C217.477 207.147 217.4 207.32 217.304 207.473C217.285 207.512 217.266 207.531 217.266 207.569C217.189 207.723 217.112 207.876 217.035 208.049C217.016 208.088 216.997 208.126 216.978 208.184C216.901 208.337 216.843 208.472 216.786 208.625C216.766 208.683 216.747 208.74 216.709 208.798C216.651 208.932 216.594 209.067 216.536 209.221C216.517 209.297 216.478 209.374 216.459 209.432C216.421 209.566 216.363 209.681 216.325 209.816C216.286 209.912 216.267 210.008 216.229 210.085C216.19 210.2 216.152 210.296 216.133 210.411C216.094 210.526 216.075 210.66 216.037 210.776C216.018 210.852 215.979 210.949 215.96 211.025C215.902 211.236 215.864 211.448 215.806 211.64C215.826 209.124 215.461 206.648 214.04 204.613C213.963 204.497 213.867 204.382 213.79 204.267C212.619 202.75 210.987 201.617 209.528 200.312ZM234.392 210.699L237.022 212.177V236.811L217.534 247.889V223.717L198.354 212.177L203.499 209.547C203.749 209.95 204.018 210.334 204.306 210.699L201.253 212.273L217.573 222.085L234.162 212.273L232.933 211.582C232.683 211.716 232.414 211.851 232.146 211.966C232.126 211.966 232.107 211.985 232.107 211.985C231.282 212.369 230.418 212.696 229.534 212.965C229.515 212.965 229.496 212.984 229.477 212.984C228.882 213.156 228.286 213.329 227.653 213.445C227.634 213.445 227.634 213.445 227.614 213.445C227.307 213.502 227 213.56 226.693 213.617C226.674 213.617 226.654 213.617 226.635 213.637C226.328 213.694 226.021 213.732 225.714 213.771C225.829 213.598 225.925 213.425 226.021 213.253C226.059 213.195 226.098 213.118 226.136 213.061C226.232 212.907 226.309 212.753 226.405 212.6C226.443 212.523 226.501 212.427 226.539 212.35C226.616 212.197 226.693 212.062 226.77 211.909C226.808 211.812 226.866 211.736 226.904 211.64C226.962 211.505 227.019 211.39 227.096 211.256C227.154 211.141 227.192 211.044 227.25 210.929C227.288 210.852 227.326 210.776 227.346 210.699C227.422 210.545 227.48 210.392 227.557 210.238C227.557 210.238 227.557 210.238 227.557 210.219C227.653 209.988 227.749 209.777 227.826 209.566C227.998 209.124 228.133 208.702 228.248 208.318C228.306 208.145 228.344 207.972 228.382 207.819C228.421 207.684 228.459 207.55 228.478 207.435C228.824 206.072 229.016 204.67 229.112 203.269C230.187 202.788 231.301 202.404 232.376 202.059C236.082 200.907 240.075 199.966 242.859 197.24C241.016 202.289 238.885 207.704 234.392 210.699ZM260.485 177.56V166.558L307.525 194.091L300.805 200.619L260.485 177.56ZM306.277 267.992L313.515 272.35L302.418 278.494L295.179 274.136L306.277 267.992ZM290.955 298.596L290.994 298.136L288.094 342.641C288.094 342.641 286.462 344.638 284.101 343.102C284.101 343.102 281.643 303.454 281.029 302.724C280.414 302.014 278.725 337.169 278.629 336.901C278.552 336.632 276.094 339.78 274.635 337.803L273.176 297.022L273.214 298.232C277.765 299.076 284.811 299.864 290.955 298.596ZM224.139 62.6861L224.485 43.8125L222.046 176.696L400.952 284.389L403.026 170.513L224.139 62.6861ZM292.76 140.811L292.971 140.005L299.557 138.776V129.483L294.546 126.545L305.432 119.173L317.163 139.697L311.346 136.222V145.956C312.402 147.608 313.246 148.971 313.88 149.989C315.243 152.177 315.378 152.388 315.339 152.6V154.462L316.702 155.211V173.182L295.045 161.412V159.781L292.798 158.552V140.811H292.76ZM348.152 207.473V230.437L255.896 177.694V154.865V150.008L256.952 150.622C257.221 150.276 257.72 150.142 258.162 150.392L260.062 151.486C260.35 151.659 260.523 151.966 260.523 152.293V152.696L348.152 203.441V207.473Z" fill="#9AC1E5"/>
        <path d="M195.646 361.938C196.587 361.957 197.105 360.844 197.835 360.901C197.931 360.901 198.046 360.959 198.181 361.074L199.429 362.38C200.369 363.512 201.483 365.01 202.289 365.855C202.328 366.2 202.289 366.584 201.925 366.738C201.195 367.045 198.891 365.586 198.891 365.586L195.646 361.938ZM178.481 349.036C178.405 350.706 178.462 354.431 180.113 356.62C181.342 358.252 182.456 357.656 183.205 356.831C182.629 356.044 182.11 355.122 182.225 353.816C182.475 350.648 181.496 349.727 181.496 349.727C180.19 349.746 179.211 349.439 178.481 349.036ZM180.785 294.335C181.592 297.1 187.582 296.312 187.582 296.312C187.544 295.717 188.984 292.319 188.984 292.319C188.984 292.319 197.144 286.194 202.712 287.711L203.173 291.071C205.707 290.13 206.84 287.596 206.84 287.596C206.84 287.596 203.883 284.927 203.979 281.548C204.113 276.402 202.001 277.055 202.001 277.055C199.678 277.381 197.931 277.919 197.931 277.919C200.216 284.927 193.784 280.28 193.726 279.877C193.669 279.474 192.497 279.551 192.497 279.551C192.497 279.551 185.739 282.949 185.374 283.141C185.009 283.314 183.761 286.616 183.589 287.231C183.416 287.845 180.785 294.335 180.785 294.335ZM188.043 309.58C188.043 309.58 192.536 312.652 198.411 311.308C204.286 309.964 206.187 307.18 206.091 307.18C206.014 307.18 205.093 303.666 204.747 302.399C204.709 302.245 204.651 301.996 204.593 301.65C204.593 301.612 204.574 301.573 204.574 301.535C204.497 301.055 204.401 300.44 204.305 299.749C204.286 299.653 204.267 299.538 204.267 299.423C204.19 298.904 204.113 298.328 204.037 297.752C204.017 297.676 204.017 297.58 203.998 297.503C203.96 297.253 203.921 297.004 203.902 296.754C203.883 296.677 203.883 296.581 203.864 296.504C203.845 296.389 203.825 296.274 203.825 296.159C201.368 296.332 192.536 297.176 189.387 300.652C189.387 300.786 189.368 300.92 189.368 301.055C189.368 301.189 189.349 301.324 189.349 301.439C189.349 301.612 189.349 301.765 189.349 301.938C189.387 304.415 188.043 309.58 188.043 309.58ZM205.189 260.14C205.189 260.14 204.037 255.743 199.947 257.874C195.857 260.024 197.489 263.116 197.489 263.116C195.032 261.752 193.803 264.479 193.803 264.479C193.803 264.479 192.766 264.018 191.653 265.362C190.539 266.706 191.441 268.204 191.441 268.204C190.846 269.452 191.998 271.026 192.075 271.007C192.152 270.988 192.401 270.623 193.093 272.005C193.784 273.388 194.379 272.984 194.379 272.984C194.379 272.984 193.112 270.796 194.321 270.412C195.531 270.028 195.493 268.837 195.493 268.837C198.046 269.74 199.774 268.472 199.774 268.472C201.406 268.818 202.289 268.396 202.731 267.992C203.096 268.626 203.499 269.816 203.461 270.93C203.403 272.389 204.401 269.048 203.71 267.186C207.262 265.266 205.189 260.14 205.189 260.14ZM261.406 66.066L261.214 75.6084C261.195 77.0676 259.601 77.9508 258.353 77.202L245.835 69.6564C245.259 69.3108 244.913 68.6772 244.913 68.0052L245.125 56.274L243.147 55.0836L242.974 64.2612C242.955 65.7204 241.361 66.6036 240.113 65.8548L227.595 58.3092C227.019 57.9636 226.673 57.33 226.673 56.658L226.885 45.2916L224.485 43.8516L224.139 62.7252L403.045 170.552L403.39 151.583L261.406 66.066ZM333.272 209.144V219.167L300.843 200.62L307.563 194.092L260.523 166.559L308.024 194.38L333.272 209.144ZM348.152 203.442V207.474L255.896 154.885V150.008L256.952 150.623C256.837 150.776 256.76 150.968 256.76 151.199V153.388C256.76 153.714 256.933 154.021 257.221 154.194L259.121 155.288C259.736 155.653 260.523 155.192 260.523 154.482V152.696L348.152 203.442ZM198.373 212.178L217.553 223.717V247.89L198.373 236.658V212.178ZM232.913 211.564C230.782 212.677 228.267 213.445 225.694 213.772C226.885 211.89 227.787 209.912 228.248 208.319C229.553 203.903 229.381 199.141 228.555 194.61C227.864 198.373 223.793 200.312 220.933 202.847C218.341 205.132 216.555 208.3 215.825 211.66C215.845 209.144 215.48 206.668 214.059 204.632C212.753 202.732 210.718 201.464 209.048 199.871C207.493 198.373 206.225 196.549 205.4 194.533C203.365 197.912 201.253 201.676 201.905 205.573C202.213 207.455 203.153 209.164 204.325 210.7L201.272 212.274L217.592 222.085L234.181 212.274L232.913 211.564ZM188.869 179.749L183.646 176.581L111.55 216.46L110.552 271.391L115.774 274.559L116.773 219.628L188.869 179.749ZM170.014 244.549L178.942 249.925L144.709 268.856L135.781 263.48L170.014 244.549ZM181.611 295.468L162.795 305.874L127.505 284.62L127.544 281.624L162.833 302.879L181.496 292.549C181.073 293.567 180.766 294.335 180.766 294.335C180.92 294.815 181.208 295.18 181.611 295.468ZM234.929 263L234.891 265.996L204.133 283.007C204.037 282.546 203.979 282.047 203.979 281.548C203.998 281.01 203.979 280.549 203.96 280.127L234.929 263ZM281.912 336.767C281.566 337.688 279.109 341.759 277.246 342.047C275.384 342.335 274.27 341.855 274.213 341.528C274.174 341.317 274.443 339.301 274.654 337.746V337.765C276.113 339.743 278.571 336.594 278.648 336.863C278.648 336.882 278.686 336.575 278.725 335.999C279.934 336.018 282.161 336.095 281.912 336.767ZM293.758 345.484C291.589 347.96 284.504 347.096 284.043 346.904C283.64 346.732 283.966 344.005 284.081 343.026C284.081 343.064 284.081 343.103 284.081 343.103C286.443 344.658 288.075 342.642 288.075 342.642V342.527C288.248 342.68 288.344 342.796 288.344 342.796C288.344 342.796 295.928 342.988 293.758 345.484ZM280.625 256.376C279.301 256.338 279.454 255.148 278.917 253.784C278.398 252.421 278.533 252.229 279.243 249.253C279.973 246.277 284.293 246.392 284.293 246.392C284.293 246.392 287.326 243.973 289.861 246.2C292.395 248.428 290.341 251.25 290.341 251.25C290.417 252.133 288.075 252.652 286.846 253.112C285.617 253.573 286.405 256.319 286.405 256.319L285.752 256.3V255.34C285.752 255.34 286.117 254.303 284.158 253.247C282.2 252.21 283.947 255.512 283.947 255.512C283.486 257.202 281.931 256.415 280.625 256.376ZM292.069 256.933C291.627 257.72 291.32 256.703 291.013 257.106C290.705 257.509 290.302 257.068 290.494 256.031C290.686 254.975 292.107 255.34 292.107 255.34C292.107 255.34 292.491 256.146 292.069 256.933ZM303.742 277.765C302.225 280.319 297.733 287.5 294.603 288.536C293.125 289.016 291.953 288.709 291.089 288.114C291.051 293.72 290.993 298.136 290.993 298.136L290.955 298.597C284.811 299.884 277.765 299.077 273.214 298.213L273.176 297.004C273.176 297.004 273.176 296.389 273.157 295.295L271.525 294.661C271.525 294.661 272.926 276.306 273.56 268.972C274.193 261.637 276.92 261.772 277.438 261.426C280.587 259.468 282.68 261.176 282.68 261.176L282.699 260.101L287.077 260.908C287.249 261.695 287.422 262.405 287.422 262.405C287.422 262.405 289.726 263.212 290.571 264.786L290.609 264.748C290.782 264.844 295.774 267.148 295.006 280.204L299.038 276.421L302.437 278.456L303.742 277.765ZM313.957 152.696L312.497 152.946L302.456 154.636C302.437 154.636 302.417 154.636 302.379 154.636C302.341 154.636 302.302 154.616 302.264 154.578C302.245 154.559 302.225 154.54 302.225 154.52L295.352 143.615L293.969 141.407C293.835 141.215 294.065 140.965 294.277 141.08L299.576 144.076L300.613 144.671L314.053 152.274C314.225 152.37 314.168 152.658 313.957 152.696ZM315.301 152.62C315.358 152.408 315.224 152.197 313.841 150.008C313.208 148.991 312.344 147.628 311.307 145.976V136.242L317.125 139.717L305.393 119.192L294.507 126.565L299.518 129.503V138.796L292.933 140.024L292.721 140.831V158.552L294.968 159.781V161.413L316.625 173.183V155.212L315.262 154.463V152.62H315.301ZM314.417 153.983V169.304L293.643 158.015V140.927L293.681 140.773L299.557 139.679L305.566 138.565C307.333 141.33 309.56 144.805 311.326 147.628C311.422 147.781 311.518 147.916 311.595 148.069C311.614 148.088 311.614 148.108 311.633 148.127C311.71 148.261 311.806 148.396 311.883 148.53C311.902 148.549 311.902 148.568 311.921 148.607C311.998 148.722 312.075 148.856 312.152 148.972C312.171 148.991 312.19 149.029 312.209 149.048C312.286 149.164 312.344 149.26 312.421 149.375C312.44 149.413 312.478 149.452 312.497 149.49C312.555 149.586 312.613 149.682 312.67 149.778C312.689 149.816 312.728 149.874 312.747 149.912C312.805 150.008 312.862 150.085 312.901 150.162C312.939 150.2 312.958 150.258 312.977 150.296C313.035 150.373 313.073 150.45 313.131 150.527C313.169 150.565 313.189 150.623 313.227 150.661C313.265 150.738 313.304 150.796 313.361 150.872C313.4 150.93 313.419 150.968 313.457 151.007C313.496 151.064 313.534 151.122 313.573 151.199C313.611 151.237 313.63 151.295 313.649 151.333C313.688 151.391 313.707 151.448 313.745 151.487C313.784 151.525 313.803 151.583 313.822 151.621C313.841 151.66 313.88 151.717 313.899 151.756C313.918 151.794 313.957 151.852 313.976 151.89C313.995 151.928 314.014 151.967 314.053 152.005C314.072 152.044 314.091 152.082 314.129 152.12C314.149 152.159 314.168 152.178 314.187 152.216C314.206 152.255 314.225 152.293 314.245 152.332C314.264 152.351 314.283 152.389 314.283 152.408C314.302 152.447 314.321 152.466 314.341 152.504C314.341 152.524 314.36 152.543 314.36 152.543C314.379 152.581 314.398 152.62 314.417 152.639V153.983Z" fill="#3B55A3"/>
        <path d="M202.328 323.308C201.656 326.706 200.811 329.817 199.832 331.353C198.814 332.966 198.027 333.81 197.451 334.233C197.393 335.692 197.355 336.806 197.355 336.806L197.393 349.785C197.393 349.785 197.393 360.383 197.355 360.978C197.355 360.998 197.355 361.017 197.355 361.036C196.836 361.324 196.356 361.977 195.627 361.958C195.608 361.958 195.588 361.958 195.569 361.958C194.59 361.881 193.208 361.266 193.227 360.402C193.227 360.402 193.073 360.422 192.843 360.537C192.881 360.441 192.92 360.364 192.939 360.287C193.227 359.615 192.804 357.254 192.804 357.254C193.092 355.737 191.172 347.673 190.788 346.502C190.558 345.81 190.577 343.295 190.808 340.934C188.446 343.545 181.745 348.633 181.361 349.727C181.246 349.727 181.131 349.727 181.035 349.727C180.996 349.727 180.958 349.727 180.92 349.727C180.824 349.727 180.728 349.708 180.632 349.708C180.593 349.708 180.555 349.708 180.516 349.689C180.401 349.67 180.305 349.65 180.19 349.65C180.171 349.65 180.152 349.65 180.132 349.65C179.998 349.631 179.883 349.593 179.768 349.574C179.748 349.574 179.748 349.574 179.729 349.554C179.633 349.535 179.518 349.497 179.422 349.478C179.403 349.478 179.384 349.458 179.364 349.458C179.268 349.42 179.172 349.401 179.076 349.362H179.057C178.846 349.286 178.654 349.19 178.462 349.074C177.387 348.479 176.83 347.654 176.6 347.193C176.83 347.097 177.022 347.02 177.195 346.962C178.289 346.598 182.129 344.082 183.684 340.492C185.22 336.902 187.448 335.423 189.944 333.657C191.192 332.774 191.844 331.718 192.19 330.892C192.171 330.604 192.152 330.45 192.152 330.45C192.152 330.45 191.998 329.606 191.748 328.281C191.787 328.281 191.825 328.3 191.864 328.3C192.017 328.319 192.171 328.338 192.344 328.358C192.574 328.377 192.824 328.396 193.073 328.396C194.148 328.415 195.3 328.281 196.491 327.858C196.587 327.82 196.683 327.801 196.76 327.762C197.22 327.59 197.681 327.359 198.142 327.09L198.123 325.209L198.104 324.038C198.104 324.038 198.91 323.961 200.004 323.769C200.1 323.75 200.216 323.73 200.312 323.711C200.734 323.634 201.176 323.558 201.636 323.462C201.886 323.404 202.116 323.346 202.328 323.308ZM218.206 311.538C217.227 311.116 214.174 307.756 214.174 307.756C216.804 308.274 217.112 306.662 216.555 306.796C215.998 306.95 212.58 306.009 212.58 306.009C212.58 306.009 209.028 300.882 208.702 299.308C208.433 298.022 204.632 292.953 203.192 291.09C203.211 291.263 203.499 293.625 203.844 296.159C203.864 296.274 203.883 296.39 203.883 296.505C203.902 296.582 203.902 296.678 203.921 296.754C203.96 297.004 203.979 297.254 204.017 297.503C204.036 297.58 204.036 297.676 204.056 297.753C204.132 298.329 204.209 298.905 204.286 299.423C204.305 299.538 204.324 299.634 204.324 299.75C204.401 300.21 204.459 300.652 204.516 301.036C207.012 303.82 209.988 307.238 209.969 307.718C209.95 308.543 212.945 311.922 212.945 311.922C212.945 311.922 214.616 314.438 215.115 314.322C215.614 314.207 214.827 312.902 214.827 312.902C214.827 312.902 215.652 313.785 216.228 313.938C216.804 314.092 215.537 312.287 215.537 312.287C215.537 312.287 217.035 313.17 217.553 313.209C218.072 313.247 216.958 311.884 216.958 311.884C218.398 312.326 219.185 311.961 218.206 311.538ZM182.763 321.407C182.763 321.407 183.032 321.484 182.955 320.678C182.955 320.678 183.684 322.674 183.838 321.158C183.838 321.158 184.971 322.578 184.798 321.177C184.798 321.177 186.027 322.809 186.334 321.887C186.641 320.966 185.182 320.044 185.105 318.201C185.105 318.201 187.121 319.026 187.236 317.778C187.236 317.778 184.952 316.319 184.76 315.839C184.568 315.378 184.011 315.532 183.876 313.42C183.742 311.308 185.662 309.158 185.508 303.167C185.508 303.167 185.259 300.23 185.355 299.423C185.393 299.058 185.892 297.772 186.545 296.409C185.432 296.466 183.646 296.447 182.34 295.89C181.572 297.772 180.939 299.193 180.651 299.481C179.729 300.441 181.63 313.458 181.63 313.458C181.63 313.458 181.304 320.217 182.763 321.407ZM202.731 268.012C202.27 268.415 201.387 268.838 199.774 268.492C199.774 268.492 198.046 269.74 195.492 268.857C195.492 268.857 195.531 270.028 194.321 270.431C193.112 270.815 194.379 273.004 194.379 273.004C194.379 273.004 193.764 273.407 193.092 272.025C192.401 270.642 192.152 270.988 192.075 271.026C192.036 271.046 191.691 270.604 191.48 270.028C191.076 269.97 190.712 270.143 190.654 270.969C190.52 272.831 192.804 272.889 192.804 272.889C192.804 272.889 192.977 273.158 193.284 273.58C193.4 275.02 193.611 278.438 193.342 279.628C193.553 279.666 193.745 279.762 193.764 279.916C193.822 280.319 200.12 284.85 198.027 278.169C197.758 278.303 197.508 278.438 197.297 278.553C197.24 278.15 197.144 277.689 197.028 277.247C197.816 277.727 198.66 278.073 199.524 278.15C203 278.418 203.633 274.06 203.384 269.798C203.23 269.068 202.98 268.415 202.731 268.012ZM290.993 257.106C290.686 257.51 290.283 257.068 290.475 256.031C290.571 255.513 290.955 255.34 291.339 255.302C290.936 253.228 290.36 251.27 290.36 251.27C290.436 252.153 288.094 252.671 286.865 253.132C285.636 253.593 286.424 256.338 286.424 256.338L285.771 256.319V255.359C285.771 255.359 286.136 254.322 284.177 253.266C282.219 252.23 283.966 255.532 283.966 255.532C283.467 257.202 281.931 256.415 280.606 256.377C281.048 257.222 281.47 257.932 281.643 258.354C281.758 258.604 282.142 258.873 282.699 259.122L282.68 260.14L287.057 260.946C287 260.697 286.961 260.447 286.904 260.198C288.9 260.466 290.801 260.447 291.339 259.871C291.704 259.468 291.742 258.45 291.627 257.26C291.416 257.183 291.204 256.838 290.993 257.106ZM273.176 297.004C273.176 297.004 273.176 296.39 273.156 295.295L272.1 294.892C271.697 295.967 271.006 297.926 271.179 299.039C271.313 299.846 272.408 300.882 273.329 301.516L273.176 297.004Z" fill="#FFD2BB" stroke="#F6BF9B" stroke-miterlimit="10"/>
        <path d="M229.803 40.4342L242.341 47.9798C242.917 48.3254 243.262 48.959 243.262 49.631L242.974 64.2422C242.955 65.7014 241.361 66.5846 240.113 65.8358L227.595 58.2902C227.019 57.9446 226.673 57.311 226.673 56.639L226.942 42.0278C226.961 40.5686 228.555 39.6854 229.803 40.4342ZM206.84 104.85V149.298L168.344 171.513V127.065L206.84 104.85ZM202.27 112.741L172.894 129.695V163.621L202.27 146.668V112.741ZM181.131 137.49L189.176 138.853C189.233 138.873 189.31 138.834 189.329 138.777L195.109 129.599C195.205 129.465 195.032 129.292 194.897 129.369L181.073 137.183C180.939 137.279 180.977 137.471 181.131 137.49ZM180.805 149.106V138.393L179.23 139.257V151.813L194.36 143.596V141.753L180.805 149.106Z" fill="#D4E6FF"/>
        <path d="M184.396 185.567L183.512 233.739L120.268 268.741L121.151 220.568L184.396 185.567ZM188.696 308.351C188.696 308.447 188.696 308.543 188.716 308.639C188.696 308.523 188.696 308.447 188.696 308.351ZM189.004 310.751C188.984 310.751 188.946 310.731 188.927 310.731C188.946 310.751 188.984 310.751 189.004 310.751ZM188.812 309.925C188.812 309.906 188.812 309.887 188.812 309.887C188.792 309.887 188.792 309.906 188.812 309.925ZM188.908 310.655V310.635C188.908 310.635 188.908 310.635 188.908 310.655ZM198.412 311.307C194.149 312.287 190.616 310.943 188.984 310.117C188.581 315.282 187.775 323.883 186.604 326.111C186.604 326.111 192.191 330.488 198.162 327.051L198.143 324.018C198.143 324.018 204.978 323.327 205.9 321.541L204.786 308.523C203.615 309.426 201.599 310.578 198.412 311.307ZM198.162 327.071L198.143 325.189C196.3 325.669 191.077 326.475 187.506 322.885C187.237 324.325 186.93 325.477 186.604 326.111C186.604 326.111 192.191 330.488 198.162 327.071ZM197.912 321.176L198.143 324.018C198.143 324.018 204.978 323.327 205.9 321.541L205.669 318.872C205.669 318.872 202.328 321.695 197.912 321.176ZM188.773 292.818C188.85 292.76 188.927 292.703 189.004 292.664C189.004 292.664 189.061 292.895 189.176 293.259C189.119 292.952 189.061 292.645 188.984 292.319C188.984 292.319 188.908 292.511 188.773 292.818ZM192.172 311.269C192.287 311.288 192.383 311.327 192.498 311.346C192.383 311.327 192.287 311.307 192.172 311.269ZM193.784 311.557C193.669 311.538 193.554 311.538 193.458 311.519C193.573 311.538 193.669 311.538 193.784 311.557ZM194.84 311.634C194.956 311.634 195.071 311.634 195.186 311.634C195.09 311.653 194.975 311.653 194.84 311.634ZM193.9 311.576C194.168 311.615 194.456 311.634 194.744 311.634C194.456 311.615 194.168 311.595 193.9 311.576ZM190.616 310.808C190.54 310.789 190.482 310.751 190.405 310.731C190.482 310.77 190.559 310.789 190.616 310.808ZM191.423 311.077C191.5 311.096 191.596 311.135 191.692 311.154C191.596 311.135 191.519 311.096 191.423 311.077ZM189.176 310.213C189.157 310.194 189.138 310.194 189.119 310.175C189.138 310.194 189.157 310.213 189.176 310.213ZM189.714 310.463C189.676 310.443 189.618 310.424 189.58 310.405C189.637 310.424 189.676 310.443 189.714 310.463ZM189.829 310.501C189.887 310.52 189.925 310.539 189.983 310.559C189.925 310.559 189.868 310.52 189.829 310.501ZM191.02 310.962C191.116 311 191.231 311.019 191.327 311.058C191.231 311.019 191.135 310.981 191.02 310.962ZM196.204 311.634C196.069 311.634 195.935 311.653 195.8 311.653C195.954 311.634 196.088 311.634 196.204 311.634ZM190.732 310.847C190.808 310.885 190.904 310.904 190.981 310.923C190.885 310.904 190.808 310.885 190.732 310.847ZM203.096 309.599C203.077 309.618 203.058 309.618 203.039 309.637C203.077 309.618 203.096 309.618 203.096 309.599ZM202.271 310.021C202.309 310.002 202.367 309.983 202.405 309.963C202.348 309.983 202.309 310.002 202.271 310.021ZM201.599 310.309C201.541 310.328 201.484 310.367 201.426 310.386C201.484 310.347 201.541 310.328 201.599 310.309ZM199.141 311.135C199.084 311.154 199.026 311.173 198.968 311.173C199.026 311.154 199.084 311.135 199.141 311.135ZM196.338 311.615C196.472 311.615 196.588 311.595 196.722 311.576C196.607 311.595 196.472 311.615 196.338 311.615ZM197.912 311.403C198.066 311.365 198.239 311.346 198.392 311.307C198.239 311.346 198.085 311.384 197.912 311.403ZM200.984 310.559C201.042 310.539 201.119 310.52 201.176 310.482C201.119 310.501 201.042 310.52 200.984 310.559ZM200.524 310.712C200.6 310.693 200.658 310.674 200.716 310.635C200.658 310.674 200.581 310.693 200.524 310.712ZM182.476 355.525C182.38 355.256 182.303 354.949 182.245 354.642C181.016 354.335 179.98 354.719 179.308 355.179C179.365 355.333 179.442 355.487 179.519 355.64C180.594 355.103 181.784 355.314 182.476 355.525ZM178.52 351.551C178.54 351.743 178.559 351.935 178.578 352.127C180.191 351.416 181.976 352.299 181.976 352.299C181.976 352.299 182.092 352.299 182.245 352.319C182.226 352.031 182.207 351.781 182.168 351.551C182.015 351.493 181.842 351.416 181.631 351.339C180.383 350.859 179.269 351.128 178.52 351.551ZM198.911 365.567C198.911 365.567 199.18 365.739 199.544 365.931C200.101 364.837 201.004 364.837 201.503 364.914C201.272 364.645 201.042 364.357 200.812 364.05C200.101 364.184 199.276 364.933 198.796 365.413L198.911 365.567ZM197.202 363.666L197.932 364.472C197.989 364.376 198.047 364.261 198.104 364.127C198.565 363.051 199.314 362.859 199.852 362.879C199.717 362.706 199.583 362.552 199.448 362.379L199.199 362.13C198.412 362.418 197.548 363.282 197.202 363.666ZM189.368 300.671C192.517 297.176 201.368 296.331 203.807 296.178C203.461 293.547 203.154 291.09 203.154 291.09L202.693 287.73C197.106 286.213 188.965 292.338 188.965 292.338C189.81 295.736 189.484 298.424 189.368 300.671ZM198.162 310.923C193.9 311.903 190.367 310.559 188.735 309.733C188.332 314.898 187.525 323.499 186.354 325.727C186.354 325.727 191.941 330.104 197.912 326.667L197.893 323.634C197.893 323.634 204.728 322.943 205.65 321.157L204.536 308.139C203.365 309.042 201.349 310.194 198.162 310.923ZM348.152 207.474V230.437L255.896 177.695V154.866L348.152 207.474ZM333.272 209.144L308.024 194.379L260.485 166.559V177.56L300.824 200.619L333.253 219.167V209.144H333.272ZM260.063 151.487L258.162 150.392C257.548 150.027 256.76 150.488 256.76 151.199V153.387C256.76 153.714 256.933 154.021 257.221 154.194L259.122 155.288C259.736 155.653 260.524 155.192 260.524 154.482V152.293C260.524 151.947 260.351 151.64 260.063 151.487ZM314.86 152.543V170.053L293.202 158.283V140.869L293.336 140.389L305.605 138.104C305.701 138.085 305.797 138.123 305.855 138.219C305.855 138.219 314.994 152.504 314.86 152.543ZM314.034 152.274L294.258 141.099C294.047 140.984 293.816 141.215 293.951 141.426L302.207 154.559C302.264 154.635 302.341 154.674 302.437 154.655L313.957 152.715C314.168 152.658 314.226 152.37 314.034 152.274ZM195.32 129.272V141.215L180.805 149.106V137.451C181.151 136.818 184.645 131.307 187.007 127.621L195.301 129.157L195.32 129.272ZM194.898 129.387L181.074 137.202C180.94 137.279 180.978 137.471 181.132 137.49L189.176 138.853C189.234 138.872 189.311 138.834 189.33 138.776L195.109 129.599C195.186 129.464 195.032 129.311 194.898 129.387ZM202.271 113.125V147.051L172.895 164.005V130.079L202.271 113.125ZM195.935 129.195L195.781 128.619L187.007 126.987C186.815 126.949 186.623 127.026 186.508 127.199C186.488 127.218 184.914 129.695 183.34 132.171C182.418 133.611 181.688 134.783 181.17 135.608C180.21 137.144 180.114 137.298 180.152 137.432V138.719L179.192 139.237V151.794L194.322 143.576V142.443L195.896 141.579V129.195H195.935ZM307.352 268.645L306.392 269.279L309.772 271.295L310.732 270.68L307.352 268.645Z" fill="#000040"/>
        <path d="M186.354 325.726C186.68 325.092 186.987 323.94 187.256 322.5C190.808 326.091 196.05 325.285 197.893 324.805L197.912 326.686C191.922 330.104 186.354 325.726 186.354 325.726ZM197.662 320.792L197.893 323.633C197.893 323.633 204.728 322.942 205.65 321.156L205.419 318.488C205.419 318.488 202.078 321.31 197.662 320.792ZM245.182 53.3741L244.914 67.9853C244.894 68.6573 245.259 69.2909 245.835 69.6365L258.354 77.1821C259.602 77.9309 261.195 77.0477 261.214 75.5885L261.502 60.9773C261.522 60.3053 261.157 59.6717 260.581 59.3261L248.043 51.7805C246.795 51.0317 245.202 51.9149 245.182 53.3741ZM116.773 219.627L115.774 274.558L187.87 234.661L188.869 179.729L116.773 219.627ZM183.512 233.739L120.267 268.741L121.15 220.568L184.395 185.566L183.512 233.739ZM144.709 268.856L178.942 249.905L178.923 251.326L144.69 270.277L134.533 264.171L135.781 263.48L144.709 268.856ZM195.589 361.937C196.568 362.014 197.086 360.843 197.835 360.901C198.584 360.939 201.003 364.548 202.405 365.95C203.806 367.352 206.053 367.64 205.074 369.617C204.094 371.614 200.926 371.192 199.89 371.288C198.853 371.384 196.165 368.024 194.187 367.275C192.229 366.545 191.979 366.142 191.979 366.142C190.654 360.747 193.246 360.401 193.246 360.401C193.246 361.265 194.629 361.88 195.589 361.937ZM181.496 349.726C181.496 349.726 182.475 350.629 182.226 353.816C181.976 356.984 185.355 357.963 184.568 359.902C183.781 361.841 183.378 362.801 179.71 361.784C176.043 360.766 176.466 356.177 175.237 354.488C174.008 352.798 173.029 351.8 173.029 350.744C173.029 349.688 174.546 346.539 176.466 346.827C176.466 346.827 177.483 349.764 181.496 349.726ZM194.13 280.299C194.11 280.28 194.091 280.26 194.072 280.26C194.11 280.28 194.11 280.28 194.13 280.299ZM194.226 280.376C194.206 280.356 194.187 280.337 194.168 280.318C194.168 280.337 194.206 280.356 194.226 280.376ZM193.957 280.145C193.976 280.165 193.976 280.164 193.995 280.184C193.976 280.164 193.957 280.165 193.957 280.145ZM193.88 280.068L193.861 280.049C193.861 280.049 193.861 280.068 193.88 280.068ZM193.938 280.126C193.918 280.107 193.918 280.107 193.899 280.088C193.899 280.107 193.918 280.107 193.938 280.126ZM181.496 292.549L162.834 302.878L127.544 281.643L199.621 241.726L234.949 263L203.96 280.126C203.73 276.939 202.386 276.977 202.078 277.035C203.307 275.518 203.538 272.619 203.365 269.758C203.307 269.489 203.25 269.24 203.173 269.009C203.365 269.585 203.499 270.277 203.461 270.929C203.403 272.389 204.402 269.048 203.71 267.185C207.262 265.265 205.17 260.12 205.17 260.12C205.17 260.12 204.018 255.723 199.928 257.854C195.838 260.004 197.47 263.096 197.47 263.096C195.013 261.732 193.784 264.459 193.784 264.459C193.784 264.459 192.747 263.998 191.634 265.342C190.52 266.686 191.422 268.184 191.422 268.184C191.134 268.779 191.25 269.451 191.461 269.988C191.058 269.931 190.693 270.104 190.635 270.929C190.501 272.792 192.786 272.849 192.786 272.849C192.786 272.849 192.958 273.118 193.266 273.54C193.381 274.98 193.592 278.398 193.323 279.589C192.958 279.512 192.517 279.55 192.517 279.55C192.517 279.55 185.758 282.949 185.394 283.141C185.029 283.313 183.781 286.616 183.608 287.23C183.474 287.633 182.302 290.59 181.496 292.549ZM194.61 280.645C194.648 280.664 194.686 280.683 194.706 280.721C194.667 280.702 194.648 280.683 194.61 280.645ZM193.803 280.011L193.822 280.03C193.822 280.011 193.822 280.011 193.803 280.011ZM197.01 277.208C197.413 277.457 197.835 277.668 198.277 277.822C198.066 277.88 197.95 277.918 197.95 277.918C197.97 277.995 197.989 278.053 198.027 278.129C197.758 278.264 197.509 278.398 197.298 278.513C197.202 278.11 197.106 277.649 197.01 277.208ZM194.514 280.587C194.552 280.606 194.571 280.625 194.61 280.645C194.571 280.625 194.533 280.606 194.514 280.587ZM198.008 278.129C199.582 283.141 196.414 281.854 194.725 280.721C196.414 281.854 199.563 283.16 198.008 278.129ZM202.904 268.337C202.885 268.299 202.866 268.241 202.846 268.203C202.866 268.241 202.885 268.28 202.904 268.337ZM202.827 268.165C202.808 268.107 202.77 268.068 202.75 268.011C202.77 268.049 202.789 268.107 202.827 268.165ZM203 268.549C203.058 268.683 203.115 268.836 203.154 268.99C203.115 268.836 203.058 268.702 203 268.549ZM193.438 279.627C193.458 279.627 193.477 279.646 193.496 279.646C193.477 279.646 193.458 279.646 193.438 279.627ZM193.342 279.608C193.362 279.608 193.381 279.627 193.4 279.627C193.381 279.608 193.362 279.608 193.342 279.608ZM193.726 279.876C193.726 279.857 193.707 279.838 193.707 279.819C193.726 279.838 193.726 279.857 193.726 279.876ZM193.688 279.8C193.688 279.781 193.669 279.781 193.65 279.761C193.688 279.781 193.688 279.781 193.688 279.8ZM193.515 279.665C193.534 279.685 193.573 279.684 193.592 279.704C193.573 279.684 193.554 279.665 193.515 279.665ZM209.528 200.312C209.912 197.547 211.045 194.859 212.562 192.478C214.674 189.156 217.477 186.353 220.242 183.589C218.974 187.947 222.507 192.113 223.717 196.51C224.062 197.739 224.197 199.006 224.216 200.273C223.102 201.137 221.931 201.944 220.914 202.846C220.856 202.904 220.798 202.961 220.741 203.019C219.954 203.729 219.262 204.516 218.629 205.361C218.514 205.534 218.379 205.707 218.264 205.88C218.264 205.88 218.264 205.899 218.245 205.899C218.13 206.072 218.014 206.244 217.918 206.398C217.918 206.417 217.899 206.417 217.899 206.437C217.803 206.609 217.707 206.763 217.611 206.936C217.592 206.955 217.592 206.974 217.573 206.993C217.477 207.147 217.4 207.32 217.304 207.473C217.285 207.512 217.266 207.531 217.266 207.569C217.189 207.723 217.112 207.876 217.035 208.049C217.016 208.088 216.997 208.126 216.978 208.184C216.901 208.337 216.843 208.472 216.786 208.625C216.766 208.683 216.747 208.74 216.709 208.798C216.651 208.932 216.594 209.067 216.536 209.221C216.517 209.297 216.478 209.374 216.459 209.432C216.421 209.566 216.363 209.681 216.325 209.816C216.286 209.912 216.267 210.008 216.229 210.085C216.19 210.2 216.152 210.296 216.133 210.411C216.094 210.526 216.075 210.66 216.037 210.776C216.018 210.852 215.979 210.949 215.96 211.025C215.902 211.236 215.864 211.448 215.806 211.64C215.826 209.124 215.461 206.648 214.04 204.613C213.963 204.497 213.867 204.382 213.79 204.267C212.619 202.75 210.987 201.617 209.528 200.312ZM234.392 210.699L237.022 212.177V236.811L217.534 247.889V223.717L198.354 212.177L203.499 209.547C203.749 209.95 204.018 210.334 204.306 210.699L201.253 212.273L217.573 222.085L234.162 212.273L232.933 211.582C232.683 211.716 232.414 211.851 232.146 211.966C232.126 211.966 232.107 211.985 232.107 211.985C231.282 212.369 230.418 212.696 229.534 212.965C229.515 212.965 229.496 212.984 229.477 212.984C228.882 213.156 228.286 213.329 227.653 213.445C227.634 213.445 227.634 213.445 227.614 213.445C227.307 213.502 227 213.56 226.693 213.617C226.674 213.617 226.654 213.617 226.635 213.637C226.328 213.694 226.021 213.732 225.714 213.771C225.829 213.598 225.925 213.425 226.021 213.253C226.059 213.195 226.098 213.118 226.136 213.061C226.232 212.907 226.309 212.753 226.405 212.6C226.443 212.523 226.501 212.427 226.539 212.35C226.616 212.197 226.693 212.062 226.77 211.909C226.808 211.812 226.866 211.736 226.904 211.64C226.962 211.505 227.019 211.39 227.096 211.256C227.154 211.141 227.192 211.044 227.25 210.929C227.288 210.852 227.326 210.776 227.346 210.699C227.422 210.545 227.48 210.392 227.557 210.238C227.557 210.238 227.557 210.238 227.557 210.219C227.653 209.988 227.749 209.777 227.826 209.566C227.998 209.124 228.133 208.702 228.248 208.318C228.306 208.145 228.344 207.972 228.382 207.819C228.421 207.684 228.459 207.55 228.478 207.435C228.824 206.072 229.016 204.67 229.112 203.269C230.187 202.788 231.301 202.404 232.376 202.059C236.082 200.907 240.075 199.966 242.859 197.24C241.016 202.289 238.885 207.704 234.392 210.699ZM260.485 177.56V166.558L307.525 194.091L300.805 200.619L260.485 177.56ZM306.277 267.992L313.515 272.35L302.418 278.494L295.179 274.136L306.277 267.992ZM290.955 298.596L290.994 298.136L288.094 342.641C288.094 342.641 286.462 344.638 284.101 343.102C284.101 343.102 281.643 303.454 281.029 302.724C280.414 302.014 278.725 337.169 278.629 336.901C278.552 336.632 276.094 339.78 274.635 337.803L273.176 297.022L273.214 298.232C277.765 299.076 284.811 299.864 290.955 298.596ZM224.139 62.6861L224.485 43.8125L222.046 176.696L400.952 284.389L403.026 170.513L224.139 62.6861ZM292.76 140.811L292.971 140.005L299.557 138.776V129.483L294.546 126.545L305.432 119.173L317.163 139.697L311.346 136.222V145.956C312.402 147.608 313.246 148.971 313.88 149.989C315.243 152.177 315.378 152.388 315.339 152.6V154.462L316.702 155.211V173.182L295.045 161.412V159.781L292.798 158.552V140.811H292.76ZM348.152 207.473V230.437L255.896 177.694V154.865V150.008L256.952 150.622C257.221 150.276 257.72 150.142 258.162 150.392L260.062 151.486C260.35 151.659 260.523 151.966 260.523 152.293V152.696L348.152 203.441V207.473Z" fill="#F8F8FF"/>
        <path d="M195.646 361.938C196.587 361.957 197.105 360.844 197.835 360.901C197.931 360.901 198.046 360.959 198.181 361.074L199.429 362.38C200.369 363.512 201.483 365.01 202.289 365.855C202.328 366.2 202.289 366.584 201.925 366.738C201.195 367.045 198.891 365.586 198.891 365.586L195.646 361.938ZM178.481 349.036C178.405 350.706 178.462 354.431 180.113 356.62C181.342 358.252 182.456 357.656 183.205 356.831C182.629 356.044 182.11 355.122 182.225 353.816C182.475 350.648 181.496 349.727 181.496 349.727C180.19 349.746 179.211 349.439 178.481 349.036ZM180.785 294.335C181.592 297.1 187.582 296.312 187.582 296.312C187.544 295.717 188.984 292.319 188.984 292.319C188.984 292.319 197.144 286.194 202.712 287.711L203.173 291.071C205.707 290.13 206.84 287.596 206.84 287.596C206.84 287.596 203.883 284.927 203.979 281.548C204.113 276.402 202.001 277.055 202.001 277.055C199.678 277.381 197.931 277.919 197.931 277.919C200.216 284.927 193.784 280.28 193.726 279.877C193.669 279.474 192.497 279.551 192.497 279.551C192.497 279.551 185.739 282.949 185.374 283.141C185.009 283.314 183.761 286.616 183.589 287.231C183.416 287.845 180.785 294.335 180.785 294.335ZM188.043 309.58C188.043 309.58 192.536 312.652 198.411 311.308C204.286 309.964 206.187 307.18 206.091 307.18C206.014 307.18 205.093 303.666 204.747 302.399C204.709 302.245 204.651 301.996 204.593 301.65C204.593 301.612 204.574 301.573 204.574 301.535C204.497 301.055 204.401 300.44 204.305 299.749C204.286 299.653 204.267 299.538 204.267 299.423C204.19 298.904 204.113 298.328 204.037 297.752C204.017 297.676 204.017 297.58 203.998 297.503C203.96 297.253 203.921 297.004 203.902 296.754C203.883 296.677 203.883 296.581 203.864 296.504C203.845 296.389 203.825 296.274 203.825 296.159C201.368 296.332 192.536 297.176 189.387 300.652C189.387 300.786 189.368 300.92 189.368 301.055C189.368 301.189 189.349 301.324 189.349 301.439C189.349 301.612 189.349 301.765 189.349 301.938C189.387 304.415 188.043 309.58 188.043 309.58ZM205.189 260.14C205.189 260.14 204.037 255.743 199.947 257.874C195.857 260.024 197.489 263.116 197.489 263.116C195.032 261.752 193.803 264.479 193.803 264.479C193.803 264.479 192.766 264.018 191.653 265.362C190.539 266.706 191.441 268.204 191.441 268.204C190.846 269.452 191.998 271.026 192.075 271.007C192.152 270.988 192.401 270.623 193.093 272.005C193.784 273.388 194.379 272.984 194.379 272.984C194.379 272.984 193.112 270.796 194.321 270.412C195.531 270.028 195.493 268.837 195.493 268.837C198.046 269.74 199.774 268.472 199.774 268.472C201.406 268.818 202.289 268.396 202.731 267.992C203.096 268.626 203.499 269.816 203.461 270.93C203.403 272.389 204.401 269.048 203.71 267.186C207.262 265.266 205.189 260.14 205.189 260.14ZM261.406 66.066L261.214 75.6084C261.195 77.0676 259.601 77.9508 258.353 77.202L245.835 69.6564C245.259 69.3108 244.913 68.6772 244.913 68.0052L245.125 56.274L243.147 55.0836L242.974 64.2612C242.955 65.7204 241.361 66.6036 240.113 65.8548L227.595 58.3092C227.019 57.9636 226.673 57.33 226.673 56.658L226.885 45.2916L224.485 43.8516L224.139 62.7252L403.045 170.552L403.39 151.583L261.406 66.066ZM333.272 209.144V219.167L300.843 200.62L307.563 194.092L260.523 166.559L308.024 194.38L333.272 209.144ZM348.152 203.442V207.474L255.896 154.885V150.008L256.952 150.623C256.837 150.776 256.76 150.968 256.76 151.199V153.388C256.76 153.714 256.933 154.021 257.221 154.194L259.121 155.288C259.736 155.653 260.523 155.192 260.523 154.482V152.696L348.152 203.442ZM198.373 212.178L217.553 223.717V247.89L198.373 236.658V212.178ZM232.913 211.564C230.782 212.677 228.267 213.445 225.694 213.772C226.885 211.89 227.787 209.912 228.248 208.319C229.553 203.903 229.381 199.141 228.555 194.61C227.864 198.373 223.793 200.312 220.933 202.847C218.341 205.132 216.555 208.3 215.825 211.66C215.845 209.144 215.48 206.668 214.059 204.632C212.753 202.732 210.718 201.464 209.048 199.871C207.493 198.373 206.225 196.549 205.4 194.533C203.365 197.912 201.253 201.676 201.905 205.573C202.213 207.455 203.153 209.164 204.325 210.7L201.272 212.274L217.592 222.085L234.181 212.274L232.913 211.564ZM188.869 179.749L183.646 176.581L111.55 216.46L110.552 271.391L115.774 274.559L116.773 219.628L188.869 179.749ZM170.014 244.549L178.942 249.925L144.709 268.856L135.781 263.48L170.014 244.549ZM181.611 295.468L162.795 305.874L127.505 284.62L127.544 281.624L162.833 302.879L181.496 292.549C181.073 293.567 180.766 294.335 180.766 294.335C180.92 294.815 181.208 295.18 181.611 295.468ZM234.929 263L234.891 265.996L204.133 283.007C204.037 282.546 203.979 282.047 203.979 281.548C203.998 281.01 203.979 280.549 203.96 280.127L234.929 263ZM281.912 336.767C281.566 337.688 279.109 341.759 277.246 342.047C275.384 342.335 274.27 341.855 274.213 341.528C274.174 341.317 274.443 339.301 274.654 337.746V337.765C276.113 339.743 278.571 336.594 278.648 336.863C278.648 336.882 278.686 336.575 278.725 335.999C279.934 336.018 282.161 336.095 281.912 336.767ZM293.758 345.484C291.589 347.96 284.504 347.096 284.043 346.904C283.64 346.732 283.966 344.005 284.081 343.026C284.081 343.064 284.081 343.103 284.081 343.103C286.443 344.658 288.075 342.642 288.075 342.642V342.527C288.248 342.68 288.344 342.796 288.344 342.796C288.344 342.796 295.928 342.988 293.758 345.484ZM280.625 256.376C279.301 256.338 279.454 255.148 278.917 253.784C278.398 252.421 278.533 252.229 279.243 249.253C279.973 246.277 284.293 246.392 284.293 246.392C284.293 246.392 287.326 243.973 289.861 246.2C292.395 248.428 290.341 251.25 290.341 251.25C290.417 252.133 288.075 252.652 286.846 253.112C285.617 253.573 286.405 256.319 286.405 256.319L285.752 256.3V255.34C285.752 255.34 286.117 254.303 284.158 253.247C282.2 252.21 283.947 255.512 283.947 255.512C283.486 257.202 281.931 256.415 280.625 256.376ZM292.069 256.933C291.627 257.72 291.32 256.703 291.013 257.106C290.705 257.509 290.302 257.068 290.494 256.031C290.686 254.975 292.107 255.34 292.107 255.34C292.107 255.34 292.491 256.146 292.069 256.933ZM303.742 277.765C302.225 280.319 297.733 287.5 294.603 288.536C293.125 289.016 291.953 288.709 291.089 288.114C291.051 293.72 290.993 298.136 290.993 298.136L290.955 298.597C284.811 299.884 277.765 299.077 273.214 298.213L273.176 297.004C273.176 297.004 273.176 296.389 273.157 295.295L271.525 294.661C271.525 294.661 272.926 276.306 273.56 268.972C274.193 261.637 276.92 261.772 277.438 261.426C280.587 259.468 282.68 261.176 282.68 261.176L282.699 260.101L287.077 260.908C287.249 261.695 287.422 262.405 287.422 262.405C287.422 262.405 289.726 263.212 290.571 264.786L290.609 264.748C290.782 264.844 295.774 267.148 295.006 280.204L299.038 276.421L302.437 278.456L303.742 277.765ZM313.957 152.696L312.497 152.946L302.456 154.636C302.437 154.636 302.417 154.636 302.379 154.636C302.341 154.636 302.302 154.616 302.264 154.578C302.245 154.559 302.225 154.54 302.225 154.52L295.352 143.615L293.969 141.407C293.835 141.215 294.065 140.965 294.277 141.08L299.576 144.076L300.613 144.671L314.053 152.274C314.225 152.37 314.168 152.658 313.957 152.696ZM315.301 152.62C315.358 152.408 315.224 152.197 313.841 150.008C313.208 148.991 312.344 147.628 311.307 145.976V136.242L317.125 139.717L305.393 119.192L294.507 126.565L299.518 129.503V138.796L292.933 140.024L292.721 140.831V158.552L294.968 159.781V161.413L316.625 173.183V155.212L315.262 154.463V152.62H315.301ZM314.417 153.983V169.304L293.643 158.015V140.927L293.681 140.773L299.557 139.679L305.566 138.565C307.333 141.33 309.56 144.805 311.326 147.628C311.422 147.781 311.518 147.916 311.595 148.069C311.614 148.088 311.614 148.108 311.633 148.127C311.71 148.261 311.806 148.396 311.883 148.53C311.902 148.549 311.902 148.568 311.921 148.607C311.998 148.722 312.075 148.856 312.152 148.972C312.171 148.991 312.19 149.029 312.209 149.048C312.286 149.164 312.344 149.26 312.421 149.375C312.44 149.413 312.478 149.452 312.497 149.49C312.555 149.586 312.613 149.682 312.67 149.778C312.689 149.816 312.728 149.874 312.747 149.912C312.805 150.008 312.862 150.085 312.901 150.162C312.939 150.2 312.958 150.258 312.977 150.296C313.035 150.373 313.073 150.45 313.131 150.527C313.169 150.565 313.189 150.623 313.227 150.661C313.265 150.738 313.304 150.796 313.361 150.872C313.4 150.93 313.419 150.968 313.457 151.007C313.496 151.064 313.534 151.122 313.573 151.199C313.611 151.237 313.63 151.295 313.649 151.333C313.688 151.391 313.707 151.448 313.745 151.487C313.784 151.525 313.803 151.583 313.822 151.621C313.841 151.66 313.88 151.717 313.899 151.756C313.918 151.794 313.957 151.852 313.976 151.89C313.995 151.928 314.014 151.967 314.053 152.005C314.072 152.044 314.091 152.082 314.129 152.12C314.149 152.159 314.168 152.178 314.187 152.216C314.206 152.255 314.225 152.293 314.245 152.332C314.264 152.351 314.283 152.389 314.283 152.408C314.302 152.447 314.321 152.466 314.341 152.504C314.341 152.524 314.36 152.543 314.36 152.543C314.379 152.581 314.398 152.62 314.417 152.639V153.983Z" fill="#0034CC"/>
    </g>
    <defs>
        <filter id="filter0_d_812_13483" x="-15" y="-5" width="484" height="484" filterUnits="userSpaceOnUse" color-interpolation-filters="sRGB">
            <feFlood flood-opacity="0" result="BackgroundImageFix"/>
            <feColorMatrix in="SourceAlpha" type="matrix" values="0 0 0 0 0 0 0 0 0 0 0 0 0 0 0 0 0 0 127 0" result="hardAlpha"/>
            <feOffset dy="10"/>
            <feGaussianBlur stdDeviation="25"/>
            <feColorMatrix type="matrix" values="0 0 0 0 0.0509804 0 0 0 0 0.6 0 0 0 0 1 0 0 0 0.1 0"/>
            <feBlend mode="normal" in2="BackgroundImageFix" result="effect1_dropShadow_812_13483"/>
            <feBlend mode="normal" in="SourceGraphic" in2="effect1_dropShadow_812_13483" result="shape"/>
        </filter>
    </defs>
</svg>
