<svg width="185" height="30" viewBox="0 0 185 30" fill="none" xmlns="http://www.w3.org/2000/svg">
    <g clip-path="url(#clip0_661_16166)">
        <path fill-rule="evenodd" clip-rule="evenodd" d="M2.02009 0C2.55414 0 3.06496 0.204082 3.44808 0.578231L16.7992 13.6168C17.1823 13.9909 17.3913 14.4785 17.3913 15.0113C17.3913 15.5442 17.1823 16.0317 16.7992 16.4059L3.43647 29.4444C2.67024 30.1927 1.34673 30.1927 0.580496 29.4444C0.197377 29.0703 -0.0115967 28.5828 -0.0115967 28.0499C-0.0115967 27.517 0.197377 27.0295 0.580496 26.6553L12.5036 15.0113L0.592106 3.36735C0.208987 2.9932 1.29836e-05 2.50567 1.29836e-05 1.97279C1.29836e-05 1.43991 0.208987 0.952381 0.592106 0.578231C0.975225 0.204082 1.47444 0 2.02009 0Z" fill="#000040"/>
        <path fill-rule="evenodd" clip-rule="evenodd" d="M13.0724 2.7207C13.4091 2.7207 13.7226 2.84542 13.9548 3.07218L21.3153 10.2604L24.299 7.34655C24.775 6.8817 25.5877 6.8817 26.0636 7.34655C26.5513 7.82274 26.5513 8.59372 26.0636 9.06991L22.1976 12.8454C22.0467 12.9928 21.8726 13.0949 21.6171 13.1629H21.5591C21.1528 13.2536 20.7348 13.1289 20.433 12.8454L12.1901 4.79553C11.9579 4.56878 11.8302 4.26265 11.8302 3.93386C11.8302 3.60506 11.9579 3.29893 12.1901 3.07218C12.4223 2.84542 12.7358 2.7207 13.0724 2.7207Z" fill="#000040"/>
        <path fill-rule="evenodd" clip-rule="evenodd" d="M13.9548 26.815C13.7226 27.0417 13.4091 27.1665 13.0724 27.1665C12.7358 27.1665 12.4339 27.0417 12.1901 26.815C11.9579 26.5882 11.8302 26.2821 11.8302 25.9533C11.8302 25.6245 11.9579 25.3184 12.1901 25.0916L20.433 17.0417C20.7232 16.7583 21.1411 16.6336 21.5591 16.7129H21.6171C21.8726 16.8036 22.0467 16.9057 22.1976 17.0417L26.0636 20.8173C26.5513 21.2934 26.5513 22.0644 26.0636 22.5406C25.5877 23.0055 24.775 23.0055 24.299 22.5406L21.3153 19.6268L13.9548 26.815Z" fill="#000040"/>
        <path fill-rule="evenodd" clip-rule="evenodd" d="M42.2244 21.3831V16.179H36.5472V21.3831H33.0643V7.9931H36.5472V13.5033H42.2244V7.9931H45.7073V21.3831H42.2244ZM64.1318 15.7595C64.1318 19.297 61.717 21.5418 57.8858 21.5418C54.0546 21.5418 51.5585 19.297 51.5585 15.7595V7.9931H55.0414V15.7595C55.0414 17.5736 56.2372 18.6847 57.8974 18.6847C59.5576 18.6847 60.6605 17.5736 60.6605 15.7595V7.9931H64.1318V15.7595ZM73.4427 18.7641H76.2639C77.5526 18.7641 78.3652 18.2085 78.3652 17.2561C78.3652 16.3604 77.5642 15.8049 76.2639 15.8049H73.4427V18.7754V18.7641ZM73.4427 13.3446H76.2639C77.2855 13.3446 77.9241 12.8117 77.9241 11.95C77.9241 11.0883 77.2739 10.5895 76.2639 10.5895H73.4427V13.3446ZM76.4613 7.9931C79.5378 7.9931 81.4998 9.29695 81.4998 11.3378C81.4998 12.755 80.5943 13.8774 79.1431 14.2856C80.8729 14.6144 81.9642 15.9296 81.9642 17.6756C81.9642 19.9545 79.9325 21.3831 76.6934 21.3831H69.9715V7.9931H76.4496H76.4613ZM97.9972 9.33096L96.6853 11.9954C95.2341 11.1677 93.4114 10.6008 92.2968 10.6008C91.3913 10.6008 90.7876 10.9296 90.7876 11.5759C90.7876 13.8888 98.032 12.5736 98.032 17.4149C98.032 20.0906 95.6056 21.5078 92.5406 21.5078C90.2535 21.5078 87.8968 20.6688 86.2714 19.365L87.6298 16.7459C89.0345 17.9477 91.1591 18.7527 92.5871 18.7527C93.69 18.7527 94.375 18.3559 94.375 17.5849C94.375 15.2153 87.1305 16.6326 87.1305 11.882C87.1305 9.41033 89.3015 7.8457 92.5987 7.8457C94.5839 7.8457 96.5924 8.43527 98.0088 9.3423L97.9972 9.33096ZM103.268 21.3831V7.9931H106.751V21.3831H103.268ZM116.317 18.662H118.802C120.938 18.662 122.47 17.0521 122.47 14.7051C122.47 12.3582 120.868 10.7028 118.651 10.7028H116.317V18.662ZM118.72 7.98176C123.028 7.98176 126.011 10.7028 126.011 14.6824C126.011 18.662 122.993 21.3831 118.581 21.3831H112.823V7.9931H118.72V7.98176ZM134.672 10.6575V13.3219H141.22V15.9976H134.672V18.696H142.137V21.3718H131.189V7.9931H141.928V10.6688H134.684L134.672 10.6575Z" fill="#000040"/>
        <path d="M148.406 20.4981C149.836 20.4981 150.995 19.3661 150.995 17.9698C150.995 16.5734 149.836 15.4414 148.406 15.4414C146.977 15.4414 145.817 16.5734 145.817 17.9698C145.817 19.3661 146.977 20.4981 148.406 20.4981Z" fill="#7CC8C7"/>
        <path d="M155.535 15.3506V7.87891H159.447V15.2372C159.447 17.5501 160.434 18.4798 162.071 18.4798C163.708 18.4798 164.671 17.5501 164.671 15.2372V7.87891H168.514V15.3506C168.514 19.3755 166.111 21.6317 162.024 21.6317C157.938 21.6317 155.535 19.3755 155.535 15.3506Z" fill="#000040"/>
        <path d="M185 8.33241C185 11.3936 182.632 13.3097 178.859 13.3097H176.455V16.8358H172.543V3.34375H178.859C182.632 3.34375 185 5.24851 185 8.33241ZM181.053 8.33241C181.053 7.07391 180.24 6.34829 178.626 6.34829H176.455V10.2939H178.626C180.24 10.2939 181.053 9.5569 181.053 8.33241Z" fill="#000040"/>
    </g>
    <defs>
        <clipPath id="clip0_661_16166">
            <rect width="185" height="30" fill="white"/>
        </clipPath>
    </defs>
</svg>
